<svg width="25" height="25" viewBox="0 0 25 25" fill="none" xmlns="http://www.w3.org/2000/svg">
<path d="M10.8203 3.78906C11.4844 3.90625 11.9531 4.53125 11.8359 5.23438L11.4453 7.5H15.1562L15.625 4.80469C15.7422 4.14062 16.3672 3.67188 17.0703 3.78906C17.7344 3.90625 18.2031 4.53125 18.0859 5.23438L17.6953 7.5H20C20.6641 7.5 21.25 8.08594 21.25 8.75C21.25 9.45312 20.6641 10 20 10H17.3047L16.4453 15H18.75C19.4141 15 20 15.5859 20 16.25C20 16.9531 19.4141 17.5 18.75 17.5H16.0547L15.5859 20.2344C15.4688 20.8984 14.8438 21.3672 14.1406 21.25C13.4766 21.1328 13.0078 20.5078 13.125 19.8047L13.5156 17.5391H9.80469L9.33594 20.2344C9.21875 20.8984 8.59375 21.3672 7.89062 21.25C7.22656 21.1328 6.75781 20.5078 6.875 19.8047L7.26562 17.5H5C4.29688 17.5 3.75 16.9531 3.75 16.25C3.75 15.5859 4.29688 15 5 15H7.65625L8.51562 10H6.25C5.54688 10 5 9.45312 5 8.75C5 8.08594 5.54688 7.5 6.25 7.5H8.90625L9.375 4.80469C9.49219 4.14062 10.1172 3.67188 10.8203 3.78906ZM11.0547 10L10.1953 15H13.9062L14.7656 10H11.0547Z" fill="currentColor"/>
</svg>
