<svg width="25" height="25" viewBox="0 0 25 25" fill="none" xmlns="http://www.w3.org/2000/svg">
<path d="M4.0625 4.375H5.9375C6.44531 4.375 6.875 4.80469 6.875 5.3125V7.1875C6.875 7.73438 6.44531 8.125 5.9375 8.125H4.0625C3.51562 8.125 3.125 7.73438 3.125 7.1875V5.3125C3.125 4.80469 3.51562 4.375 4.0625 4.375ZM10 5H21.25C21.9141 5 22.5 5.58594 22.5 6.25C22.5 6.95312 21.9141 7.5 21.25 7.5H10C9.29688 7.5 8.75 6.95312 8.75 6.25C8.75 5.58594 9.29688 5 10 5ZM10 11.25H21.25C21.9141 11.25 22.5 11.8359 22.5 12.5C22.5 13.2031 21.9141 13.75 21.25 13.75H10C9.29688 13.75 8.75 13.2031 8.75 12.5C8.75 11.8359 9.29688 11.25 10 11.25ZM10 17.5H21.25C21.9141 17.5 22.5 18.0859 22.5 18.75C22.5 19.4531 21.9141 20 21.25 20H10C9.29688 20 8.75 19.4531 8.75 18.75C8.75 18.0859 9.29688 17.5 10 17.5ZM3.125 11.5625C3.125 11.0547 3.51562 10.625 4.0625 10.625H5.9375C6.44531 10.625 6.875 11.0547 6.875 11.5625V13.4375C6.875 13.9844 6.44531 14.375 5.9375 14.375H4.0625C3.51562 14.375 3.125 13.9844 3.125 13.4375V11.5625ZM4.0625 16.875H5.9375C6.44531 16.875 6.875 17.3047 6.875 17.8125V19.6875C6.875 20.2344 6.44531 20.625 5.9375 20.625H4.0625C3.51562 20.625 3.125 20.2344 3.125 19.6875V17.8125C3.125 17.3047 3.51562 16.875 4.0625 16.875Z" fill="currentColor"/>
</svg>
