<svg width="25" height="25" viewBox="0 0 25 25" fill="none" xmlns="http://www.w3.org/2000/svg">
<path d="M8.75 2.5C9.41406 2.5 10 3.08594 10 3.75V5H15V3.75C15 3.08594 15.5469 2.5 16.25 2.5C16.9141 2.5 17.5 3.08594 17.5 3.75V5H19.375C20.3906 5 21.25 5.85938 21.25 6.875V8.75H3.75V6.875C3.75 5.85938 4.57031 5 5.625 5H7.5V3.75C7.5 3.08594 8.04688 2.5 8.75 2.5ZM3.75 10H21.25V20.625C21.25 21.6797 20.3906 22.5 19.375 22.5H5.625C4.57031 22.5 3.75 21.6797 3.75 20.625V10ZM6.875 12.5C6.52344 12.5 6.25 12.8125 6.25 13.125V16.875C6.25 17.2266 6.52344 17.5 6.875 17.5H10.625C10.9375 17.5 11.25 17.2266 11.25 16.875V13.125C11.25 12.8125 10.9375 12.5 10.625 12.5H6.875Z" fill="currentColor"/>
</svg>
