<svg width="25" height="25" viewBox="0 0 25 25" fill="none" xmlns="http://www.w3.org/2000/svg">
<path d="M6.25 6.25V7.5C6.25 8.20312 5.66406 8.75 5 8.75C4.29688 8.75 3.75 8.20312 3.75 7.5V5.625C3.75 4.60938 4.57031 3.75 5.625 3.75H12.5H19.375C20.3906 3.75 21.25 4.60938 21.25 5.625V7.5C21.25 8.20312 20.6641 8.75 20 8.75C19.2969 8.75 18.75 8.20312 18.75 7.5V6.25H13.75V18.75H15.625C16.2891 18.75 16.875 19.3359 16.875 20C16.875 20.7031 16.2891 21.25 15.625 21.25H9.375C8.67188 21.25 8.125 20.7031 8.125 20C8.125 19.3359 8.67188 18.75 9.375 18.75H11.25V6.25H6.25Z" fill="currentColor"/>
</svg>
