<svg width="25" height="25" viewBox="0 0 25 25" fill="none" xmlns="http://www.w3.org/2000/svg">
<path d="M5.625 5C5.625 3.63281 6.71875 2.5 8.125 2.5H16.875C18.2422 2.5 19.375 3.63281 19.375 5V20C19.375 21.4062 18.2422 22.5 16.875 22.5H8.125C6.71875 22.5 5.625 21.4062 5.625 20V5ZM13.75 20C13.75 19.3359 13.1641 18.75 12.5 18.75C11.7969 18.75 11.25 19.3359 11.25 20C11.25 20.7031 11.7969 21.25 12.5 21.25C13.1641 21.25 13.75 20.7031 13.75 20ZM16.875 5H8.125V17.5H16.875V5Z" fill="currentColor"/>
</svg>
