<svg width="25" height="25" viewBox="0 0 25 25" fill="none" xmlns="http://www.w3.org/2000/svg">
<path d="M7.5 2.5H13.75V7.5C13.75 8.20312 14.2969 8.75 15 8.75H20V20C20 21.4062 18.8672 22.5 17.5 22.5H7.5C6.09375 22.5 5 21.4062 5 20V5C5 3.63281 6.09375 2.5 7.5 2.5ZM15 2.5L20 7.5H15V2.5ZM13.4375 18.4375V14.4531L14.6484 15.6641C15 16.0547 15.5859 16.0547 15.9766 15.6641C16.3281 15.3125 16.3281 14.7266 15.9766 14.3359L13.1641 11.5234C12.7734 11.1719 12.1875 11.1719 11.8359 11.5234L9.02344 14.3359C8.63281 14.7266 8.63281 15.3125 9.02344 15.6641C9.375 16.0547 9.96094 16.0547 10.3516 15.6641L11.5625 14.4531V18.4375C11.5625 18.9844 11.9531 19.375 12.5 19.375C13.0078 19.375 13.4375 18.9844 13.4375 18.4375Z" fill="currentColor"/>
</svg>
