<svg width="25" height="25" viewBox="0 0 25 25" fill="none" xmlns="http://www.w3.org/2000/svg">
<path d="M13.0469 14.6875C12.7734 15.0781 12.1875 15.0781 11.9141 14.6875C10.6641 13.125 7.8125 9.33594 7.8125 7.1875C7.8125 4.60938 9.88281 2.5 12.5 2.5C15.0781 2.5 17.1875 4.60938 17.1875 7.1875C17.1875 9.33594 14.2969 13.125 13.0469 14.6875ZM17.5 22.1484V10.3516C17.6172 10.0781 17.7344 9.80469 17.8516 9.53125C17.8906 9.49219 17.8906 9.45312 17.9297 9.41406L22.4609 7.57812C23.0469 7.34375 23.75 7.77344 23.75 8.4375V19.0234C23.75 19.4141 23.5156 19.7656 23.125 19.8828L17.5 22.1484ZM1.83594 9.84375L6.60156 7.92969C6.71875 8.47656 6.875 9.02344 7.10938 9.53125C7.22656 9.80469 7.34375 10.0781 7.5 10.3516V20.1562L2.5 22.1484C1.91406 22.3828 1.25 21.9531 1.25 21.2891V10.7031C1.25 10.3125 1.48438 9.96094 1.83594 9.84375ZM16.25 12.4609V22.2266L8.75 20.0781V12.4609C9.53125 13.7109 10.3906 14.8047 10.9375 15.4688C11.7188 16.4844 13.2422 16.4844 14.0234 15.4688C14.5703 14.8047 15.4297 13.7109 16.25 12.4609Z" fill="currentColor"/>
</svg>
