<svg width="25" height="25" viewBox="0 0 25 25" fill="none" xmlns="http://www.w3.org/2000/svg">
<path d="M4.375 5H20.625C21.6406 5 22.5 5.85938 22.5 6.875C22.5 7.5 22.1875 8.04688 21.7188 8.39844L13.2422 14.7656C12.7734 15.1172 12.1875 15.1172 11.7188 14.7656L3.24219 8.39844C2.77344 8.04688 2.5 7.5 2.5 6.875C2.5 5.85938 3.32031 5 4.375 5ZM2.5 9.375L10.9766 15.7812C11.875 16.4453 13.0859 16.4453 13.9844 15.7812L22.5 9.375V17.5C22.5 18.9062 21.3672 20 20 20H5C3.59375 20 2.5 18.9062 2.5 17.5V9.375Z" fill="currentColor"/>
</svg>
