<svg width="25" height="25" viewBox="0 0 25 25" fill="none" xmlns="http://www.w3.org/2000/svg">
<path d="M12.5 3.75C13.0469 3.75 13.5547 4.0625 13.8281 4.53125L22.2656 18.9062C22.5391 19.4141 22.5391 20 22.2656 20.4688C21.9922 20.9766 21.4844 21.25 20.9375 21.25H4.0625C3.47656 21.25 2.96875 20.9766 2.69531 20.4688C2.42188 20 2.42188 19.4141 2.69531 18.9062L11.1328 4.53125C11.4062 4.0625 11.9141 3.75 12.5 3.75ZM12.5 8.75C11.9531 8.75 11.5625 9.17969 11.5625 9.6875V14.0625C11.5625 14.6094 11.9531 15 12.5 15C13.0078 15 13.4375 14.6094 13.4375 14.0625V9.6875C13.4375 9.17969 13.0078 8.75 12.5 8.75ZM13.75 17.5C13.75 16.8359 13.1641 16.25 12.5 16.25C11.7969 16.25 11.25 16.8359 11.25 17.5C11.25 18.2031 11.7969 18.75 12.5 18.75C13.1641 18.75 13.75 18.2031 13.75 17.5Z" fill="currentColor"/>
</svg>
