<svg width="25" height="26" viewBox="0 0 25 26" fill="none" xmlns="http://www.w3.org/2000/svg">
<path d="M11.3672 3.46875C11.9922 2.88281 12.9688 2.88281 13.5938 3.46875L22.0312 11.9062C22.6172 12.5312 22.6172 13.5078 22.0312 14.1328L13.5938 22.5703C12.9688 23.1562 11.9922 23.1562 11.3672 22.5703L2.92969 14.1328C2.34375 13.5078 2.34375 12.5312 2.92969 11.9062L11.3672 3.46875ZM14.8047 8.82031C14.6094 8.66406 14.3359 8.58594 14.1016 8.70312C13.9062 8.78125 13.75 9.01562 13.75 9.25V11.4375H11.25C9.84375 11.4375 8.75 12.5703 8.75 13.9375V15.8125C8.75 16.3594 9.14062 16.75 9.6875 16.75C10.1953 16.75 10.625 16.3594 10.625 15.8125V13.9375C10.625 13.625 10.8984 13.3125 11.25 13.3125H13.75V15.5C13.75 15.7734 13.8672 16.0078 14.1016 16.0859C14.3359 16.2031 14.6094 16.125 14.8047 15.9688L17.9297 12.8438C18.1641 12.6094 18.1641 12.1797 17.9297 11.9453L14.8047 8.82031Z" fill="#9747FF"/>
</svg>