<svg width="64" height="64" viewBox="0 0 64 64" fill="none" xmlns="http://www.w3.org/2000/svg">
<g clip-path="url(#clip0_657_3100)">
<path d="M22.3484 24.9806C22.4642 16.03 11.9928 10.5217 4.76552 15.784C4.34313 16.0833 4.24328 16.6681 4.54245 17.0906C4.84175 17.513 5.42673 17.6129 5.84912 17.3137C11.8671 12.9341 20.5712 17.5299 20.4737 24.9809C20.4738 30.1453 16.3058 34.3469 11.1825 34.3469C4.32151 34.4333 -0.291426 26.7703 2.92025 20.6981C3.15594 20.2372 2.97323 19.6726 2.51235 19.4369C2.0516 19.2012 1.48687 19.3838 1.25118 19.8448C-2.60433 27.138 2.94124 36.3248 11.1825 36.2215C17.3394 36.2213 22.3484 31.1786 22.3484 24.9806Z" fill="black"/>
<path d="M8.0374 29.9307C8.41592 29.9307 8.77246 29.6996 8.9143 29.3246L9.43029 27.9598H12.9396L13.45 29.322C13.6316 29.8067 14.1717 30.0524 14.6566 29.8708C15.1413 29.6893 15.387 29.149 15.2054 28.6643L12.2411 20.7518C12.2379 20.7433 12.2346 20.735 12.2311 20.7265C12.0584 20.3033 11.648 20.0315 11.1952 20.0308C10.7387 20.0311 10.3326 20.3052 10.1607 20.7286C10.158 20.7356 10.1552 20.7425 10.1526 20.7495L7.16112 28.6615C6.94505 29.2329 7.44543 29.9307 8.0374 29.9307ZM11.193 23.2978L12.2373 26.0853H10.139L11.193 23.2978Z" fill="black"/>
<path d="M35.6601 13.092C35.6601 12.0984 35.1916 11.2131 34.4657 10.646C35.7186 8.86321 34.3702 6.26688 32.1743 6.29937H29.8601C29.3425 6.29937 28.9229 6.71902 28.9229 7.23663V15.2618C28.9229 15.7284 29.3894 16.1991 29.8644 16.1991C29.8644 16.1991 31.9921 16.1894 32.5785 16.1894C34.2777 16.1893 35.6601 14.7998 35.6601 13.092ZM32.1744 8.17377C33.3595 8.21238 33.3581 9.95618 32.1711 9.99242C31.7133 9.99442 31.2554 9.99517 30.7975 9.99455V8.17377H32.1744ZM30.7974 11.8717C31.3911 11.8692 31.9848 11.8683 32.5784 11.8689C34.1762 11.9263 34.1755 14.2577 32.5784 14.3147C32.2515 14.3147 31.4475 14.3177 30.7974 14.3203V11.8717Z" fill="black"/>
<path d="M52.8343 13.7399C46.6774 13.7399 41.6685 18.7824 41.6685 24.9806C42.2309 39.8729 63.4398 39.8688 64.0002 24.9805C64.0002 18.7824 58.9912 13.7399 52.8343 13.7399ZM52.8343 34.3468C47.711 34.3468 43.543 30.1451 43.543 24.9806C44.0112 12.5717 61.6593 12.575 62.1257 24.9807C62.1257 30.145 57.9576 34.3468 52.8343 34.3468Z" fill="black"/>
<path d="M56.1137 27.14C55.7161 26.8089 55.125 26.8628 54.7938 27.2607C53.0464 29.1563 49.877 27.4086 49.9586 24.9806C49.9271 22.5616 52.7249 21.0462 54.7046 22.4281C55.1326 22.7193 55.7155 22.6084 56.0068 22.1806C56.298 21.7527 56.1871 21.1697 55.7592 20.8784C52.5658 18.6465 48.0336 21.0785 48.0842 24.9807C47.9731 29.1274 53.4159 31.7302 56.2346 28.4601C56.5656 28.0622 56.5116 27.4712 56.1137 27.14Z" fill="black"/>
<path d="M48.4235 49.1902C47.9059 49.1902 47.4862 49.6098 47.4862 50.1274C47.4862 52.0376 46.7793 53.8632 45.5 55.2632L43.7218 57.1823C43.5615 57.3553 43.4723 57.5826 43.472 57.8186L43.4683 63.0537C43.4679 63.5714 43.8873 63.9912 44.4049 63.9916H44.4055C44.9229 63.9916 45.3424 63.5725 45.3428 63.055L45.3463 58.1869L46.8794 56.5323C48.4795 54.781 49.3606 52.5063 49.3606 50.1272C49.3607 49.6098 48.9411 49.1902 48.4235 49.1902Z" fill="black"/>
<path d="M43.9535 41.8473V39.5019C43.9841 37.1469 47.5304 37.4536 47.4802 39.7613L47.4829 44.6848C47.4832 45.2023 47.9027 45.6215 48.4202 45.6215H48.4207C48.9383 45.6213 49.3577 45.2014 49.3575 44.6838L49.3547 39.7608C49.4162 36.8402 46.1717 35.0768 43.7232 36.4968C42.9436 34.3611 40.0828 33.5738 38.2271 34.794C37.396 33.0004 34.928 32.3863 33.2136 33.2726V22.4224C47.152 20.4004 46.0824 0.522668 32.0081 0.00830078C20.874 0.0602874 16.6859 14.7274 26.0122 20.733C25.7928 21.7086 25.9902 38.9801 25.9324 45.6327L19.8676 40.2588C18.5174 39.0617 16.3243 39.4683 15.1695 40.6992C13.9043 42.0478 13.8162 43.9623 14.9551 45.3546C14.9597 45.3601 14.9642 45.3656 14.9689 45.3711L25.9331 58.1659V63.0544C25.9331 63.572 26.3528 63.9917 26.8704 63.9917C27.388 63.9917 27.8076 63.572 27.8076 63.0544V57.8193C27.8076 57.5956 27.7277 57.3793 27.5821 57.2094L16.4 44.1603C15.748 43.3552 16.0654 42.4841 16.5368 41.9815C16.9984 41.4894 17.8287 41.1255 18.6641 41.6969L26.2488 48.4174C26.5248 48.662 26.9187 48.722 27.2552 48.5707C27.5914 48.4192 27.8078 48.0845 27.8076 47.7158C27.8073 46.6751 27.7985 22.2247 27.796 21.5769C27.7934 20.9295 28.046 20.4539 28.5464 20.1631C29.1418 19.8174 29.9761 19.8166 30.5752 20.1614C31.0794 20.4515 31.336 20.9264 31.3387 21.572V21.5734C31.3387 21.5747 31.339 21.5761 31.3391 21.5775C31.3374 21.575 31.3409 38.8705 31.3394 38.8704C31.3788 40.1095 33.175 40.1093 33.2139 38.8704V36.3955C33.2139 35.3917 33.9834 34.7452 34.9572 34.7452C36.2505 34.7452 36.7093 35.6342 36.7093 36.3955V40.1583C36.7467 41.3954 38.5455 41.3984 38.5839 40.1583C38.5839 40.1437 38.5839 37.7028 38.5839 37.69C38.5839 36.5079 39.4881 36.0884 40.2625 36.0884C40.9373 36.0884 42.0793 36.4529 42.0793 37.8193V41.8473C42.1139 43.0821 43.9156 43.0888 43.9535 41.8473ZM27.6048 18.5423C27.3444 18.6936 27.1116 18.8739 26.9075 19.078C19.277 14.0086 22.8088 1.92131 32.0082 1.88282C43.6834 2.30421 44.6187 18.8021 33.0747 20.5528C32.836 19.6972 32.2952 18.9885 31.5102 18.5366C30.3397 17.8631 28.7703 17.8653 27.6048 18.5423Z" fill="black"/>
</g>
<defs>
<clipPath id="clip0_657_3100">
<rect width="64" height="64" fill="white"/>
</clipPath>
</defs>
</svg>
