<svg width="25" height="24" viewBox="0 0 25 24" fill="none" xmlns="http://www.w3.org/2000/svg">
<path d="M13.1835 3.5625L19.746 10.4375C20.0976 10.8281 20.0976 11.4141 19.707 11.7656C19.3164 12.1172 18.7304 12.1172 18.3789 11.7266L13.457 6.53125V19.8125C13.457 20.3594 13.0273 20.75 12.5195 20.75C11.9726 20.75 11.582 20.3594 11.582 19.8125V6.53125L6.62104 11.7266C6.26948 12.1172 5.68354 12.1172 5.29292 11.7656C4.90229 11.4141 4.90229 10.7891 5.25385 10.4375L11.8164 3.5625C12.0117 3.36719 12.246 3.25 12.5195 3.25C12.7539 3.25 12.9882 3.36719 13.1835 3.5625Z" fill="#0D6EFD"/>
</svg>
