<svg width="36" height="36" viewBox="0 0 36 36" fill="none" xmlns="http://www.w3.org/2000/svg">
<path d="M15 27.9902V28.9902L19.5 25.6152C20 25.2402 20.625 24.9902 21.3125 24.9902H30C30.5 24.9902 31 24.5527 31 23.9902V5.99023C31 5.49023 30.5 4.99023 30 4.99023H6C5.4375 4.99023 5 5.49023 5 5.99023V23.9902C5 24.5527 5.4375 24.9902 6 24.9902H12C13.625 24.9902 15 26.3652 15 27.9902ZM14.9375 32.8027L14.625 32.9902L13.5625 33.8027C13.25 34.0527 12.875 34.0527 12.5 33.9277C12.1875 33.7402 12 33.4277 12 32.9902V31.6777V31.3027V31.2402V30.9902V27.9902H9H6C3.75 27.9902 2 26.2402 2 23.9902V5.99023C2 3.80273 3.75 1.99023 6 1.99023H30C32.1875 1.99023 34 3.80273 34 5.99023V23.9902C34 26.2402 32.1875 27.9902 30 27.9902H21.3125L15 32.7402L14.9375 32.8027ZM14 12.9902C12.875 12.9902 12 12.1152 12 10.9902C12 9.92773 12.875 8.99023 14 8.99023C15.0625 8.99023 16 9.92773 16 10.9902C16 12.1152 15.0625 12.9902 14 12.9902ZM22 12.9902C20.875 12.9902 20 12.1152 20 10.9902C20 9.92773 20.875 8.99023 22 8.99023C23.0625 8.99023 24 9.92773 24 10.9902C24 12.1152 23.0625 12.9902 22 12.9902ZM11.375 16.9277C12 16.3652 12.9375 16.4277 13.5 16.9902C14.5625 18.2402 16.1875 18.9902 17.9375 18.9902C19.75 18.9902 21.3125 18.2402 22.4375 16.9902C23 16.4277 23.9375 16.3652 24.5625 16.9277C25.1875 17.4277 25.25 18.4277 24.6875 18.9902C23 20.8652 20.625 21.9902 17.9375 21.9902C15.3125 21.9902 12.875 20.8652 11.25 18.9902C10.6875 18.4277 10.75 17.4277 11.375 16.9277Z" fill="#6C757D"/>
</svg>
