<svg width="128" height="128" viewBox="0 0 128 128" fill="none" xmlns="http://www.w3.org/2000/svg">
<g clip-path="url(#clip0_638_3017)">
<path d="M125.71 90.705L117.122 64.621C116.798 63.6375 115.738 63.1025 114.755 63.4262C113.771 63.75 113.236 64.81 113.56 65.7935L121.648 90.3602C121.406 90.3245 121.16 90.3 120.908 90.3H113.653L104.075 61.2062V42.0692H104.806C105.37 42.0692 105.868 42.4295 106.045 42.9657L110.666 57.004C110.926 57.793 111.659 58.2932 112.447 58.2932C112.641 58.2932 112.839 58.2627 113.034 58.1987C114.018 57.875 114.552 56.815 114.229 55.8315L109.607 41.7932C108.923 39.7155 106.994 38.3195 104.806 38.3195H76.7846C73.0969 35.9377 68.7071 34.5537 63.9999 34.5537C59.2926 34.5537 54.9029 35.9377 51.2151 38.3195H23.1936C21.0061 38.3195 19.0769 39.7155 18.3926 41.7935L2.29012 90.7052C2.12187 91.216 2.03662 91.7477 2.03662 92.2855V105.641C2.03662 106.677 2.87612 107.516 3.91162 107.516C4.94712 107.516 5.78662 106.677 5.78662 105.641V95.3545C5.78662 94.6352 6.37187 94.05 7.09112 94.05H30.5664C31.0611 94.05 31.5214 94.3372 31.7384 94.782L36.3514 104.227C37.1929 105.95 38.9756 107.063 40.8931 107.063H87.1064C89.0239 107.063 90.8066 105.95 91.6481 104.227L96.2611 94.782C96.4784 94.3375 96.9384 94.05 97.4331 94.05H120.908C121.628 94.05 122.213 94.6352 122.213 95.3545V122.945C122.213 123.665 121.628 124.25 120.908 124.25H7.09112C6.37187 124.25 5.78662 123.665 5.78662 122.945V114.898C5.78662 113.863 4.94712 113.023 3.91162 113.023C2.87612 113.023 2.03662 113.863 2.03662 114.898V122.945C2.03662 125.732 4.30412 128 7.09112 128H120.909C123.696 128 125.963 125.732 125.963 122.945V92.2855C125.963 91.748 125.878 91.2162 125.71 90.705ZM100.325 57.5792C99.9556 57.4937 99.5724 57.447 99.1804 57.447H87.6181C87.4354 51.5145 85.0554 46.1262 81.2661 42.0692H100.325V57.5792ZM40.3816 57.4472H28.8194C28.4274 57.4472 28.0441 57.4937 27.6744 57.5795V42.0695H46.7336C42.9446 46.1265 40.5644 51.5147 40.3816 57.4472ZM6.35162 90.3605L21.9546 42.966C22.1311 42.4297 22.6291 42.0695 23.1936 42.0695H23.9244V61.2067L14.3464 90.3H7.09112C6.83937 90.3 6.59387 90.3247 6.35162 90.3605ZM92.8914 93.1362L88.2781 102.582C88.0611 103.026 87.6011 103.313 87.1061 103.313H40.8934C40.3986 103.313 39.9386 103.026 39.7214 102.581L35.1084 93.1362C34.2669 91.4132 32.4841 90.3 30.5666 90.3H18.2946L27.5806 62.0937C27.7571 61.5575 28.2551 61.1972 28.8196 61.1972H40.5634C41.1229 65.529 42.8781 69.66 45.6441 73.067C48.9959 77.1957 53.6854 80.102 58.8486 81.2505C59.8594 81.4745 60.8614 80.8382 61.0861 79.8272C61.3109 78.8165 60.6739 77.8147 59.6629 77.5897C55.3214 76.624 51.3766 74.1782 48.5556 70.7032C45.6949 67.1792 44.1191 62.7332 44.1191 58.1845C44.1191 47.222 53.0376 38.3035 63.9999 38.3035C74.9621 38.3035 83.8806 47.222 83.8806 58.1845C83.8806 67.5295 77.2544 75.7102 68.1251 77.636C67.1119 77.8497 66.4636 78.8442 66.6774 79.8575C66.8636 80.7402 67.6424 81.346 68.5101 81.346C68.6384 81.346 68.7686 81.3327 68.8989 81.3052C74.1219 80.2035 78.8729 77.312 82.2769 73.1635C85.0891 69.7362 86.8714 65.5707 87.4359 61.1972H99.1799C99.7444 61.1972 100.242 61.5575 100.419 62.0937L109.705 90.3H97.4331C95.5159 90.3 93.7331 91.4132 92.8914 93.1362Z" fill="#8C8C8C"/>
<path d="M13.478 119.348H20.3395C21.375 119.348 22.2145 118.509 22.2145 117.473C22.2145 116.438 21.375 115.598 20.3395 115.598H13.478C12.4425 115.598 11.603 116.438 11.603 117.473C11.603 118.509 12.4425 119.348 13.478 119.348Z" fill="#8C8C8C"/>
<path d="M13.478 113.491H20.3395C21.375 113.491 22.2145 112.651 22.2145 111.616C22.2145 110.58 21.375 109.741 20.3395 109.741H13.478C12.4425 109.741 11.603 110.58 11.603 111.616C11.603 112.651 12.4425 113.491 13.478 113.491Z" fill="#8C8C8C"/>
<path d="M68.3234 66.536C68.8531 66.536 69.3796 66.3127 69.7504 65.8782C70.4226 65.0907 70.3291 63.907 69.5416 63.2347C67.9956 61.9152 65.9426 61.185 63.7604 61.1782C61.5819 61.1735 59.5209 61.8897 57.9671 63.2002C57.1754 63.8677 57.0749 65.0507 57.7426 65.8422C58.4101 66.634 59.5931 66.7347 60.3846 66.0667C61.2434 65.3427 62.4624 64.928 63.7316 64.928H63.7491C65.0251 64.932 66.2489 65.3542 67.1071 66.0867C67.4601 66.3885 67.8929 66.536 68.3234 66.536Z" fill="#8C8C8C"/>
<path d="M53.6722 54.141H53.6499C52.6142 54.1475 51.7814 54.9702 51.7759 56.0057C51.7702 57.0412 52.6162 57.8852 53.6517 57.891H53.6622C54.6929 57.891 55.5314 57.0582 55.5369 56.0262C55.5424 54.9907 54.7077 54.1467 53.6722 54.141Z" fill="#8C8C8C"/>
<path d="M74.166 57.8807C74.18 57.8822 74.1945 57.882 74.2085 57.8832C74.2545 57.887 74.3002 57.8907 74.3472 57.891H74.3577H74.3602C74.3617 57.891 74.363 57.8907 74.3645 57.8907C74.4267 57.8905 74.4882 57.8875 74.549 57.8815C75.496 57.7867 76.2352 56.9877 76.2352 56.016C76.2352 54.9987 75.4245 54.1725 74.4142 54.1437C74.3987 54.1432 74.3835 54.1412 74.3677 54.1412H74.362C74.3615 54.1412 74.3607 54.1412 74.3602 54.1412H74.3455H74.3375C74.3367 54.1412 74.3357 54.1412 74.335 54.1412C73.3045 54.1412 72.477 54.974 72.4712 56.006C72.466 56.98 73.2147 57.7842 74.166 57.8807Z" fill="#8C8C8C"/>
<path d="M47.0736 8.88375C47.4396 9.25 47.9196 9.433 48.3993 9.433C48.8791 9.433 49.3591 9.25 49.7251 8.88375L51.2408 7.368L52.7566 8.88375C53.1226 9.24975 53.6026 9.433 54.0823 9.433C54.5621 9.433 55.0421 9.25 55.4081 8.88375C56.1404 8.1515 56.1404 6.96425 55.4081 6.23225L53.8924 4.7165L55.4081 3.20075C56.1404 2.4685 56.1404 1.28125 55.4081 0.549249C54.6761 -0.183001 53.4889 -0.183001 52.7566 0.549249L51.2408 2.065L49.7251 0.549249C48.9928 -0.183001 47.8056 -0.183001 47.0736 0.549249C46.3414 1.2815 46.3414 2.46875 47.0736 3.20075L48.5893 4.7165L47.0736 6.23225C46.3414 6.9645 46.3414 8.15175 47.0736 8.88375Z" fill="#8C8C8C"/>
<path d="M33.7146 28.44C38.4353 28.44 42.2758 24.5995 42.2758 19.8785C42.2758 15.1578 38.4353 11.3173 33.7146 11.3173C28.9938 11.3173 25.1533 15.1578 25.1533 19.8785C25.1533 24.5995 28.9941 28.44 33.7146 28.44ZM33.7146 15.0675C36.3676 15.0675 38.5258 17.2258 38.5258 19.8788C38.5258 22.5318 36.3676 24.6903 33.7146 24.6903C31.0616 24.6903 28.9033 22.532 28.9033 19.8788C28.9033 17.2258 31.0618 15.0675 33.7146 15.0675Z" fill="#8C8C8C"/>
<path d="M89.4813 27.283C89.8473 27.649 90.3273 27.8323 90.8071 27.8323C91.2868 27.8323 91.7668 27.6493 92.1328 27.283L93.6486 25.7673L95.1643 27.283C95.5303 27.649 96.0103 27.8323 96.4901 27.8323C96.9698 27.8323 97.4498 27.6493 97.8158 27.283C98.5481 26.5508 98.5481 25.3635 97.8158 24.6315L96.3001 23.1158L97.8158 21.6C98.5481 20.8678 98.5481 19.6805 97.8158 18.9485C97.0836 18.2163 95.8963 18.2163 95.1643 18.9485L93.6486 20.4643L92.1328 18.9485C91.4006 18.2163 90.2133 18.2163 89.4813 18.9485C88.7491 19.6808 88.7491 20.868 89.4813 21.6L90.9971 23.1158L89.4813 24.6315C88.7491 25.3638 88.7491 26.551 89.4813 27.283Z" fill="#8C8C8C"/>
<path d="M63.8969 26.9998H63.9026C64.9353 26.9998 65.7743 26.164 65.7776 25.1303L65.7941 19.547C65.7971 18.5115 64.9604 17.6695 63.9246 17.6665C63.9226 17.6665 63.9209 17.6665 63.9189 17.6665C62.8861 17.6665 62.0471 18.5023 62.0439 19.536L62.0274 25.1193C62.0244 26.1545 62.8614 26.9965 63.8969 26.9998Z" fill="#8C8C8C"/>
<path d="M51.7115 21.0522C50.8233 21.5842 50.5345 22.7357 51.0665 23.6242L53.9675 28.4677C54.319 29.0545 54.9403 29.3795 55.5778 29.3795C55.9055 29.3795 56.2378 29.2935 56.5395 29.1127C57.4278 28.5807 57.7165 27.4292 57.1845 26.5407L54.2835 21.6972C53.7513 20.809 52.5998 20.52 51.7115 21.0522Z" fill="#8C8C8C"/>
<path d="M71.2417 29.1835C71.5457 29.368 71.8814 29.4557 72.2127 29.4557C72.8464 29.4557 73.4647 29.1345 73.8174 28.5535L76.7474 23.726C77.2847 22.8407 77.0027 21.6875 76.1174 21.1502C75.2319 20.6132 74.0789 20.895 73.5417 21.7802L70.6117 26.6077C70.0744 27.493 70.3567 28.6462 71.2417 29.1835Z" fill="#8C8C8C"/>
<path d="M81.1147 16.7477C85.0772 16.7477 88.3007 13.524 88.3007 9.56173C88.3007 5.59948 85.0772 2.37573 81.1147 2.37573C77.1522 2.37573 73.9287 5.59948 73.9287 9.56173C73.9287 13.524 77.1522 16.7477 81.1147 16.7477ZM81.1147 6.12573C83.0095 6.12573 84.5507 7.66723 84.5507 9.56173C84.5507 11.4562 83.0092 12.9977 81.1147 12.9977C79.2202 12.9977 77.6787 11.4562 77.6787 9.56173C77.6787 7.66723 79.22 6.12573 81.1147 6.12573Z" fill="#8C8C8C"/>
</g>
<defs>
<clipPath id="clip0_638_3017">
<rect width="128" height="128" fill="white"/>
</clipPath>
</defs>
</svg>
