<svg width="22" height="22" viewBox="0 0 22 22" fill="none" xmlns="http://www.w3.org/2000/svg">
<path opacity="0.6" d="M11 21C7.40625 21 4.125 19.125 2.32812 16C0.53125 12.9141 0.53125 9.125 2.32812 6C4.125 2.91406 7.40625 1 11 1C14.5547 1 17.8359 2.91406 19.6328 6C21.4297 9.125 21.4297 12.9141 19.6328 16C17.8359 19.125 14.5547 21 11 21ZM9.125 4.75C8.77344 4.75 8.5 5.0625 8.5 5.375V6H7.25C6.54688 6 6 6.58594 6 7.25V8.5H16V7.25C16 6.58594 15.4141 6 14.75 6H13.5V5.375C13.5 5.0625 13.1875 4.75 12.875 4.75C12.5234 4.75 12.25 5.0625 12.25 5.375V6H9.75V5.375C9.75 5.0625 9.4375 4.75 9.125 4.75ZM6 14.75C6 15.4531 6.54688 16 7.25 16H14.75C15.4141 16 16 15.4531 16 14.75V9.75H6V14.75Z" fill="#888888"/>
</svg>
