<svg width="300" height="18" viewBox="0 0 300 18" fill="none" xmlns="http://www.w3.org/2000/svg">
<path fill-rule="evenodd" clip-rule="evenodd" d="M61.1337 8.55701V8.50945C61.1337 3.74203 64.9029 0 70.0153 0C72.9135 0 74.9636 0.888172 76.7085 2.38371L74.0215 5.58698C72.8425 4.60551 71.6644 4.0448 70.0402 4.0448C67.6591 4.0448 65.822 6.03153 65.822 8.53506V8.58079C65.822 11.2224 67.6831 13.114 70.2992 13.114C71.4054 13.114 72.2544 12.8808 72.9374 12.4381V10.4504H69.6862V7.13099H77.2727V14.4943C75.5295 15.9213 73.1024 17.0207 70.1093 17.0207C64.973 17.0207 61.1337 13.5138 61.1337 8.55701ZM46.1912 0.326709H59.3851V4.30291H50.7625V7.08542H58.561V10.8485H50.7625V16.6943H46.1912V0.326709ZM82.6478 0.326523H77.5355L84.2269 16.8103H88.4691L95.1614 0.326523H90.1412L86.3941 10.6837L82.6478 0.326523Z" fill="#233769"/>
<path d="M0 0.321207L14.5443 16.6797H27.2699L12.7265 0.321207H0Z" fill="#233769"/>
<path d="M30.9377 10.0613L41.8113 0.321562H29.0867L23.2867 5.51431L30.9377 10.0613Z" fill="#2A84C2"/>
<path fill-rule="evenodd" clip-rule="evenodd" d="M119.226 8.4636C119.226 3.7394 122.89 0.067627 127.789 0.067627C132.689 0.067627 136.352 3.78618 136.33 8.4636C136.307 13.2112 132.666 16.9765 127.789 16.9531C122.89 16.9297 119.226 13.141 119.226 8.4636ZM123.699 8.4636C123.699 10.966 125.519 13.0007 127.789 13.0007C130.037 13.0007 131.857 10.9894 131.857 8.4636C131.857 5.96118 130.037 4.04343 127.789 4.04343C125.519 4.04343 123.699 5.98456 123.699 8.4636ZM291.459 0.067627C286.56 0.067627 282.896 3.7394 282.896 8.4636C282.896 13.141 286.56 16.9297 291.459 16.9531C296.336 16.9765 299.977 13.2112 300 8.4636C300.022 3.78618 296.359 0.067627 291.459 0.067627ZM291.459 13.0007C289.189 13.0007 287.369 10.966 287.369 8.4636C287.369 5.98456 289.189 4.04343 291.459 4.04343C293.707 4.04343 295.527 5.96118 295.527 8.4636C295.527 10.9894 293.707 13.0007 291.459 13.0007ZM268.534 0.324377V4.04293H273.231V16.6953H277.704V4.04293H282.423V0.324377H268.534ZM251.373 0.324377H255.891L262.094 9.23486V0.324377H266.566V16.6953H262.026L255.846 7.76148V16.6953H251.373V0.324377ZM248.773 0.324377H236.119V16.6953H248.773V13.0236H240.592V10.2873H247.649V6.73244H240.592V3.99615H248.773V0.324377ZM214.895 16.6953V0.324377H219.412L223.952 7.38728L228.537 0.324377H233.055V16.6953H228.582V7.76148L223.952 15.0816L219.367 7.78486V16.6953H214.895ZM211.71 16.6953V0.324377H207.238V16.6953H211.71ZM198.046 16.9302C193.349 16.9302 189.483 13.7262 189.483 8.55761C189.483 3.45922 193.394 0.138256 198.046 0.114868C201.395 0.114868 203.755 1.70519 204.901 3.43584L201.912 5.72777C201.26 4.81568 200.204 3.85681 198.271 3.85681C195.956 3.85681 193.956 5.70439 193.956 8.55761C193.956 11.3875 195.911 13.1649 198.249 13.1649C200.519 13.1649 201.485 12.0657 202.002 11.2471L204.879 13.3286C204.047 14.8487 201.8 16.9302 198.046 16.9302ZM187.931 0.324377H175.278V16.6953H187.931V13.0236H179.75V10.2873H186.807V6.73244H179.75V3.99615H187.931V0.324377ZM156.929 0.324377H161.379V6.66228H167.717V0.324377H172.19V16.6953H167.717V10.3808H161.402V16.6953H156.929V0.324377ZM143.185 0.324377H138.667V16.6953H143.14V7.76148L149.321 16.6953H153.861V0.324377H149.388V9.23486L143.185 0.324377ZM103.226 8.55761C103.226 13.7262 107.092 16.9302 111.789 16.9302C115.542 16.9302 117.79 14.8487 118.621 13.3286L115.745 11.2471C115.228 12.0657 114.261 13.1649 111.991 13.1649C109.654 13.1649 107.698 11.3875 107.698 8.55761C107.698 5.70439 109.699 3.85681 112.014 3.85681C113.947 3.85681 115.003 4.81568 115.655 5.72777L118.644 3.43584C117.498 1.70519 115.138 0.114868 111.789 0.114868C107.137 0.138256 103.226 3.45922 103.226 8.55761Z" fill="#2A84C2"/>
</svg>
