<svg width="300" height="18" viewBox="0 0 300 18" fill="none" xmlns="http://www.w3.org/2000/svg">
<path fill-rule="evenodd" clip-rule="evenodd" d="M61.1336 9.40411V9.3566C61.1336 4.59499 64.9029 0.857513 70.0152 0.857513C72.9134 0.857513 74.9635 1.7446 76.7085 3.23832L74.0214 6.43769C72.8424 5.45742 71.6643 4.89739 70.0401 4.89739C67.6591 4.89739 65.8219 6.8817 65.8219 9.38218V9.42786C65.8219 12.0663 67.683 13.9556 70.2991 13.9556C71.4053 13.9556 72.2543 13.7226 72.9374 13.2804V11.2952H69.6861V7.97983H77.2726V15.3342C75.5295 16.7594 73.1024 17.8575 70.1093 17.8575C64.9729 17.8575 61.1336 14.3548 61.1336 9.40411ZM46.1912 1.18381H59.385V5.15517H50.7624V7.9343H58.5609V11.6928H50.7624V17.5315H46.1912V1.18381ZM82.6477 1.18364H77.5354L84.2268 17.6474H88.469L95.1613 1.18364H90.1411L86.394 11.5282L82.6477 1.18364Z" fill="#233769"/>
<path d="M0 1.17834L14.5443 17.5169H27.2699L12.7265 1.17834H0Z" fill="#233769"/>
<path d="M30.9376 10.9065L41.8113 1.17867H29.0866L23.2866 6.36509L30.9376 10.9065Z" fill="#2A84C2"/>
<path fill-rule="evenodd" clip-rule="evenodd" d="M119.226 9.32105C119.226 4.59685 122.89 0.925079 127.789 0.925079C132.689 0.925079 136.352 4.64363 136.33 9.32105C136.307 14.0686 132.666 17.834 127.789 17.8106C122.89 17.7872 119.226 13.9985 119.226 9.32105ZM123.699 9.32105C123.699 11.8235 125.519 13.8581 127.789 13.8581C130.037 13.8581 131.857 11.8469 131.857 9.32105C131.857 6.81863 130.037 4.90089 127.789 4.90089C125.519 4.90089 123.699 6.84202 123.699 9.32105ZM291.459 0.925079C286.56 0.925079 282.896 4.59685 282.896 9.32105C282.896 13.9985 286.56 17.7872 291.459 17.8106C296.336 17.834 299.977 14.0686 300 9.32105C300.022 4.64363 296.359 0.925079 291.459 0.925079ZM291.459 13.8581C289.189 13.8581 287.369 11.8235 287.369 9.32105C287.369 6.84202 289.189 4.90089 291.459 4.90089C293.707 4.90089 295.527 6.81863 295.527 9.32105C295.527 11.8469 293.707 13.8581 291.459 13.8581ZM268.534 1.18182V4.90037H273.231V17.5528H277.704V4.90037H282.423V1.18182H268.534ZM251.373 1.18182H255.891L262.094 10.0923V1.18182H266.566V17.5528H262.026L255.846 8.61892V17.5528H251.373V1.18182ZM248.773 1.18182H236.119V17.5528H248.773V13.881H240.592V11.1447H247.649V7.58989H240.592V4.8536H248.773V1.18182ZM214.895 17.5528V1.18182H219.412L223.952 8.24473L228.537 1.18182H233.055V17.5528H228.582V8.61892L223.952 15.9391L219.367 8.64231V17.5528H214.895ZM211.71 17.5528V1.18182H207.238V17.5528H211.71ZM198.046 17.7877C193.349 17.7877 189.483 14.5836 189.483 9.41508C189.483 4.31669 193.394 0.995718 198.046 0.97233C201.395 0.97233 203.755 2.56265 204.901 4.2933L201.912 6.58524C201.26 5.67314 200.204 4.71427 198.271 4.71427C195.956 4.71427 193.956 6.56185 193.956 9.41508C193.956 12.2449 195.911 14.0223 198.249 14.0223C200.519 14.0223 201.485 12.9231 202.002 12.1046L204.879 14.186C204.047 15.7062 201.8 17.7877 198.046 17.7877ZM187.931 1.18182H175.278V17.5528H187.931V13.881H179.75V11.1447H186.807V7.58989H179.75V4.8536H187.931V1.18182ZM156.929 1.18182H161.379V7.51973H167.717V1.18182H172.19V17.5528H167.717V11.2383H161.402V17.5528H156.929V1.18182ZM143.185 1.18182H138.667V17.5528H143.14V8.61892L149.321 17.5528H153.861V1.18182H149.388V10.0923L143.185 1.18182ZM103.226 9.41508C103.226 14.5836 107.092 17.7877 111.789 17.7877C115.542 17.7877 117.79 15.7062 118.621 14.186L115.745 12.1046C115.228 12.9231 114.261 14.0223 111.991 14.0223C109.654 14.0223 107.698 12.2449 107.698 9.41508C107.698 6.56185 109.699 4.71427 112.014 4.71427C113.947 4.71427 115.003 5.67314 115.655 6.58524L118.644 4.2933C117.498 2.56265 115.138 0.97233 111.789 0.97233C107.137 0.995718 103.226 4.31669 103.226 9.41508Z" fill="#2A84C2"/>
</svg>
