<svg width="300" height="18" viewBox="0 0 300 18" fill="none" xmlns="http://www.w3.org/2000/svg">
<path fill-rule="evenodd" clip-rule="evenodd" d="M61.1336 9.04663V8.99907C61.1336 4.23166 64.9029 0.489624 70.0153 0.489624C72.9134 0.489624 74.9635 1.3778 76.7085 2.87333L74.0215 6.07661C72.8425 5.09513 71.6644 4.53442 70.0402 4.53442C67.6591 4.53442 65.822 6.52115 65.822 9.02468V9.07042C65.822 11.7121 67.6831 13.6037 70.2992 13.6037C71.4054 13.6037 72.2543 13.3704 72.9374 12.9277V10.9401H69.6862V7.62062H77.2727V14.9839C75.5295 16.4109 73.1024 17.5103 70.1093 17.5103C64.973 17.5103 61.1336 14.0034 61.1336 9.04663ZM46.1912 0.816326H59.3851V4.79252H50.7625V7.57504H58.561V11.3381H50.7625V17.184H46.1912V0.816326ZM82.6478 0.816143H77.5355L84.2269 17.2999H88.469L95.1614 0.816143H90.1412L86.3941 11.1733L82.6478 0.816143Z" fill="white"/>
<path d="M0 0.810831L14.5443 17.1693H27.2699L12.7265 0.810831H0Z" fill="white"/>
<path d="M30.9377 10.5509L41.8114 0.811186H29.0867L23.2867 6.00393L30.9377 10.5509Z" fill="#2A84C2"/>
<path fill-rule="evenodd" clip-rule="evenodd" d="M119.226 8.95322C119.226 4.22903 122.89 0.557251 127.789 0.557251C132.689 0.557251 136.352 4.2758 136.33 8.95322C136.307 13.7008 132.667 17.4661 127.789 17.4427C122.89 17.4193 119.226 13.6306 119.226 8.95322ZM123.699 8.95322C123.699 11.4556 125.519 13.4903 127.789 13.4903C130.037 13.4903 131.857 11.479 131.857 8.95322C131.857 6.4508 130.037 4.53306 127.789 4.53306C125.519 4.53306 123.699 6.47419 123.699 8.95322ZM291.459 0.557251C286.56 0.557251 282.896 4.22903 282.896 8.95322C282.896 13.6306 286.56 17.4193 291.459 17.4427C296.336 17.4661 299.977 13.7008 300 8.95322C300.022 4.2758 296.359 0.557251 291.459 0.557251ZM291.459 13.4903C289.189 13.4903 287.369 11.4556 287.369 8.95322C287.369 6.47419 289.189 4.53306 291.459 4.53306C293.707 4.53306 295.527 6.4508 295.527 8.95322C295.527 11.479 293.707 13.4903 291.459 13.4903ZM268.534 0.813992V4.53254H273.231V17.185H277.704V4.53254H282.423V0.813992H268.534ZM251.373 0.813992H255.891L262.094 9.72448V0.813992H266.566V17.185H262.026L255.846 8.25109V17.185H251.373V0.813992ZM248.773 0.813992H236.119V17.185H248.773V13.5132H240.592V10.7769H247.649V7.22206H240.592V4.48577H248.773V0.813992ZM214.895 17.185V0.813992H219.412L223.952 7.8769L228.537 0.813992H233.055V17.185H228.582V8.25109L223.952 15.5713L219.367 8.27448V17.185H214.895ZM211.71 17.185V0.813992H207.238V17.185H211.71ZM198.046 17.4198C193.349 17.4198 189.483 14.2158 189.483 9.04725C189.483 3.94886 193.394 0.627893 198.046 0.604504C201.395 0.604504 203.755 2.19483 204.901 3.92547L201.912 6.21741C201.26 5.30531 200.204 4.34644 198.271 4.34644C195.956 4.34644 193.956 6.19402 193.956 9.04725C193.956 11.8771 195.911 13.6545 198.249 13.6545C200.519 13.6545 201.485 12.5553 202.002 11.7368L204.879 13.8182C204.047 15.3384 201.8 17.4198 198.046 17.4198ZM187.931 0.813992H175.278V17.185H187.931V13.5132H179.75V10.7769H186.807V7.22206H179.75V4.48577H187.931V0.813992ZM156.929 0.813992H161.379V7.1519H167.717V0.813992H172.19V17.185H167.717V10.8704H161.402V17.185H156.929V0.813992ZM143.185 0.813992H138.667V17.185H143.14V8.25109L149.321 17.185H153.861V0.813992H149.388V9.72448L143.185 0.813992ZM103.226 9.04725C103.226 14.2158 107.092 17.4198 111.789 17.4198C115.542 17.4198 117.79 15.3384 118.621 13.8182L115.745 11.7368C115.228 12.5553 114.261 13.6545 111.991 13.6545C109.654 13.6545 107.698 11.8771 107.698 9.04725C107.698 6.19402 109.699 4.34644 112.014 4.34644C113.947 4.34644 115.003 5.30531 115.655 6.21741L118.644 3.92547C117.498 2.19483 115.138 0.604504 111.789 0.604504C107.137 0.627893 103.226 3.94886 103.226 9.04725Z" fill="#2A84C2"/>
</svg>
