<svg width="141" height="47" viewBox="0 0 141 47" fill="none" xmlns="http://www.w3.org/2000/svg">
<path d="M0.899902 41.5208H3.59116V42.0748H1.51148V43.4921H3.33362V44.0265H1.51148V45.6306H3.64907V46.1846H0.899902V41.5208Z" fill="#464C4C"/>
<path d="M6.94306 43.711L5.41074 41.5208H6.13816L6.85286 42.5513C7.02039 42.7897 7.18756 43.0344 7.35509 43.2924H7.36803C7.54178 43.0282 7.7092 42.7768 7.87008 42.5451L8.57832 41.5208H9.26077L7.73483 43.711L9.47973 46.1846H8.74586L7.85091 44.909C7.66408 44.6451 7.49033 44.3875 7.32281 44.1361H7.30986C7.14268 44.3875 6.96868 44.6451 6.79495 44.8898L5.88716 46.1846H5.19824L6.94306 43.711Z" fill="#464C4C"/>
<path d="M12.1363 44.3487H13.8102L13.4304 43.3825C13.2823 43.0089 13.1277 42.6096 12.986 42.2295H12.9731C12.8318 42.6096 12.6772 43.0023 12.5161 43.4017L12.1363 44.3487ZM12.6901 41.5208H13.2759L15.2009 46.1846H14.5443L14.0226 44.8831H11.9239L11.3957 46.1846H10.7715L12.6901 41.5208Z" fill="#464C4C"/>
<path d="M18.256 43.4596C18.0435 43.157 17.8375 42.8476 17.6315 42.5388L17.6186 42.5451C17.625 42.8218 17.6315 43.1762 17.6315 43.5563V46.1846H17.0391V41.5208H17.6315L19.2862 43.8915L20.9408 41.5208H21.5266V46.1846H20.915V43.5563C20.915 43.1762 20.9214 42.8218 20.9279 42.5451L20.915 42.5388C20.7089 42.8476 20.5029 43.157 20.2904 43.4596L19.2732 44.9156L18.256 43.4596Z" fill="#464C4C"/>
<path d="M23.854 41.5208H26.5453V42.0748H24.4658V43.4921H26.2877V44.0265H24.4658V45.6306H26.6032V46.1846H23.854V41.5208Z" fill="#464C4C"/>
<path d="M31.5308 46.1846V41.5208H32.1103L34.0611 44.1103C34.3315 44.4647 34.6019 44.8319 34.8659 45.1991L34.8788 45.1924C34.8723 44.7868 34.8659 44.3167 34.8659 43.8656V41.5208H35.4581V46.1846H34.8788L32.9279 43.5951C32.6575 43.2408 32.3871 42.8735 32.1232 42.5063L32.1103 42.5129C32.1168 42.9186 32.1232 43.3888 32.1232 43.8398V46.1846H31.5308Z" fill="#464C4C"/>
<path d="M38.6618 44.3487H40.3356L39.9559 43.3825C39.8077 43.0089 39.6532 42.6096 39.5115 42.2295H39.4986C39.3571 42.6096 39.2026 43.0023 39.0415 43.4017L38.6618 44.3487ZM39.2155 41.5208H39.8013L41.7263 46.1846H41.0697L40.548 44.8831H38.4493L37.9212 46.1846H37.2969L39.2155 41.5208Z" fill="#464C4C"/>
<path d="M45.5733 41.45C46.0627 41.45 46.5197 41.5725 46.8868 41.7785V42.4484C46.5391 42.1907 46.0627 42.0169 45.5669 42.0169C44.5045 42.0169 43.7576 42.8156 43.7576 43.8527C43.7576 44.8899 44.5045 45.6886 45.6183 45.6886C46.1334 45.6886 46.5905 45.5146 46.9576 45.2184V45.8949C46.5841 46.1328 46.0754 46.2554 45.5863 46.2554C44.1697 46.2554 43.146 45.2312 43.146 43.8656C43.146 42.5388 44.1118 41.45 45.5733 41.45Z" fill="#464C4C"/>
<path d="M49.0728 41.5208H49.6845V46.1846H49.0728V41.5208Z" fill="#464C4C"/>
<path d="M54.1189 45.6886C55.1361 45.6886 55.8765 44.8769 55.8765 43.8527C55.8765 42.8285 55.1361 42.0169 54.1189 42.0169C53.1017 42.0169 52.3612 42.8285 52.3612 43.8527C52.3612 44.8769 53.1017 45.6886 54.1189 45.6886ZM54.1189 41.45C55.4709 41.45 56.4881 42.5001 56.4881 43.8527C56.4881 45.2054 55.4709 46.2554 54.1189 46.2554C52.7668 46.2554 51.7495 45.2054 51.7495 43.8527C51.7495 42.5001 52.7668 41.45 54.1189 41.45Z" fill="#464C4C"/>
<path d="M58.5518 46.1846V41.5208H59.1313L61.0821 44.1103C61.3525 44.4647 61.6229 44.8319 61.8869 45.1991L61.8998 45.1924C61.8934 44.7868 61.8869 44.3167 61.8869 43.8656V41.5208H62.4791V46.1846H61.8998L59.9489 43.5951C59.6786 43.2408 59.4082 42.8735 59.1443 42.5063L59.1313 42.5129C59.1378 42.9186 59.1443 43.3888 59.1443 43.8398V46.1846H58.5518Z" fill="#464C4C"/>
<path d="M65.6822 44.3487H67.3561L66.9763 43.3825C66.8281 43.0089 66.6736 42.6096 66.5319 42.2295H66.519C66.3776 42.6096 66.223 43.0023 66.062 43.4017L65.6822 44.3487ZM66.2359 41.5208H66.8217L68.7468 46.1846H68.0901L67.5685 44.8831H65.4698L64.9416 46.1846H64.3174L66.2359 41.5208Z" fill="#464C4C"/>
<path d="M70.5854 41.5208H71.197V45.6306H73.399V46.1846H70.5854V41.5208Z" fill="#464C4C"/>
<path d="M79.4597 45.6306C80.0197 45.6306 80.4705 45.5597 80.8438 45.3213C81.2882 45.0378 81.5971 44.5097 81.5971 43.8527C81.5971 43.1762 81.2688 42.6739 80.8503 42.3971C80.4447 42.1266 79.9489 42.0748 79.4469 42.0748H78.8482V45.6306H79.4597ZM78.2363 41.5208H79.5176C80.1358 41.5208 80.6959 41.6175 81.1659 41.9011C81.8354 42.3066 82.2089 43.022 82.2089 43.8335C82.2089 44.6064 81.874 45.2954 81.2817 45.7144C80.7859 46.062 80.1678 46.1846 79.3631 46.1846H78.2363V41.5208Z" fill="#464C4C"/>
<path d="M84.2534 41.5208H86.9447V42.0748H84.865V43.4921H86.6871V44.0265H84.865V45.6306H87.0026V46.1846H84.2534V41.5208Z" fill="#464C4C"/>
<path d="M93.3338 43.6852C93.7458 43.6852 94.0356 43.6339 94.2481 43.4726C94.4218 43.3438 94.5249 43.1508 94.5249 42.8927C94.5249 42.5967 94.3897 42.3645 94.1449 42.2296C93.8939 42.094 93.5978 42.0749 93.1471 42.0749H92.542V43.6852H93.3338ZM91.9302 41.5209H93.1921C93.6621 41.5209 94.1129 41.5401 94.4927 41.7526C94.8789 41.9653 95.1365 42.3263 95.1365 42.8414C95.1365 43.3438 94.8918 43.7239 94.5376 43.9365C94.3704 44.0395 94.1965 44.0974 94.0033 44.1295L95.4969 46.1846H94.7566L93.3338 44.1878H92.542V46.1846H91.9302V41.5209Z" fill="#464C4C"/>
<path d="M97.3745 41.5208H100.066V42.0748H97.9864V43.4921H99.8082V44.0265H97.9864V45.6306H100.124V46.1846H97.3745V41.5208Z" fill="#464C4C"/>
<path d="M102.098 45.2312C102.529 45.5534 103.076 45.6952 103.488 45.6952C104.042 45.6952 104.435 45.4438 104.435 44.9348C104.435 44.3358 103.888 44.2328 103.276 44.0586C102.619 43.8719 101.982 43.6014 101.982 42.751C101.982 41.9264 102.581 41.45 103.488 41.45C103.926 41.45 104.454 41.5596 104.828 41.7976V42.4421C104.403 42.1457 103.875 42.0103 103.476 42.0103C102.954 42.0103 102.587 42.2358 102.587 42.7127C102.587 43.2925 103.128 43.3888 103.694 43.5501C104.371 43.7431 105.04 44.0136 105.04 44.9027C105.04 45.7532 104.416 46.2554 103.482 46.2554C103.031 46.2554 102.497 46.1328 102.098 45.9011V45.2312Z" fill="#464C4C"/>
<path d="M107.104 41.5208H107.716V46.1846H107.104V41.5208Z" fill="#464C4C"/>
<path d="M111.268 45.6306C111.828 45.6306 112.279 45.5597 112.652 45.3213C113.097 45.0378 113.406 44.5097 113.406 43.8527C113.406 43.1762 113.077 42.6739 112.659 42.3971C112.253 42.1266 111.757 42.0748 111.255 42.0748H110.657V45.6306H111.268ZM110.045 41.5208H111.326C111.944 41.5208 112.504 41.6175 112.974 41.9011C113.644 42.3066 114.018 43.022 114.018 43.8335C114.018 44.6064 113.682 45.2954 113.09 45.7144C112.594 46.062 111.976 46.1846 111.172 46.1846H110.045V41.5208Z" fill="#464C4C"/>
<path d="M117.092 40.0068H117.71L118.438 41.0636H117.955L117.401 40.387L116.848 41.0636H116.365L117.092 40.0068ZM116.062 41.5208H118.753V42.0748H116.674V43.4921H118.496V44.0265H116.674V45.6306H118.811V46.1846H116.062V41.5208Z" fill="#464C4C"/>
<path d="M120.895 46.1846V41.5208H121.474L123.425 44.1103C123.695 44.4647 123.966 44.8319 124.23 45.1991L124.243 45.1924C124.236 44.7868 124.23 44.3167 124.23 43.8656V41.5208H124.822V46.1846H124.243L122.292 43.5951C122.021 43.2408 121.751 42.8735 121.487 42.5063L121.474 42.5129C121.48 42.9186 121.487 43.3888 121.487 43.8398V46.1846H120.895Z" fill="#464C4C"/>
<path d="M129.319 41.45C129.808 41.45 130.265 41.5725 130.632 41.7785V42.4484C130.285 42.1907 129.808 42.0169 129.312 42.0169C128.25 42.0169 127.503 42.8156 127.503 43.8527C127.503 44.8899 128.25 45.6886 129.364 45.6886C129.879 45.6886 130.336 45.5146 130.703 45.2184V45.8949C130.33 46.1328 129.821 46.2554 129.332 46.2554C127.915 46.2554 126.892 45.2312 126.892 43.8656C126.892 42.5388 127.857 41.45 129.319 41.45Z" fill="#464C4C"/>
<path d="M132.819 41.5208H133.43V46.1846H132.819V41.5208Z" fill="#464C4C"/>
<path d="M136.635 44.3487H138.309L137.929 43.3825C137.781 43.0089 137.627 42.6096 137.485 42.2295H137.472C137.331 42.6096 137.176 43.0023 137.015 43.4017L136.635 44.3487ZM137.189 41.5208H137.775L139.7 46.1846H139.043L138.522 44.8831H136.423L135.895 46.1846H135.271L137.189 41.5208Z" fill="#464C4C"/>
<path d="M140.3 36.8325H0.299805V38.4971H140.3V36.8325Z" fill="#84C455"/>
<path d="M52.3453 10.165C54.0222 12.0666 54.8615 14.6808 54.8615 18.0073V32.4443H47.2459V18.8986C47.2459 17.2355 46.8075 15.9354 45.9322 14.9998C45.0561 14.0639 43.8906 13.5959 42.4361 13.5959C40.892 13.5959 39.6674 14.0864 38.762 15.0664C37.8559 16.0468 37.4036 17.4436 37.4036 19.2552V32.4443H29.7881V7.58065H37.4036V12.1259C38.1162 10.6407 39.1774 9.46751 40.5878 8.60555C41.9978 7.74426 43.6532 7.31336 45.5536 7.31336C48.4038 7.31336 50.6675 8.26434 52.3453 10.165Z" fill="#2E4869"/>
<path d="M70.0703 15.5568C69.0751 16.6263 68.5783 18.1118 68.5783 20.0127C68.5783 21.9139 69.0751 23.3991 70.0703 24.4685C71.0647 25.538 72.3785 26.0726 74.0116 26.0726C75.6149 26.0726 76.9287 25.5232 77.9529 24.424C78.9773 23.3251 79.4895 21.8547 79.4895 20.0127C79.4895 18.1412 78.9773 16.6637 77.9529 15.5789C76.9287 14.495 75.6149 13.9525 74.0116 13.9525C72.3785 13.9525 71.0647 14.4874 70.0703 15.5568ZM76.461 8.5609C77.8263 9.42283 78.8361 10.5962 79.4895 12.081V7.58069H87.0605V32.4444H79.4895V27.944C78.8361 29.4298 77.8263 30.6031 76.461 31.4643C75.0951 32.3262 73.4619 32.7563 71.5622 32.7563C69.5136 32.7563 67.6799 32.2439 66.062 31.219C64.4435 30.1944 63.1673 28.7169 62.2321 26.7855C61.2969 24.8548 60.8291 22.5971 60.8291 20.0127C60.8291 17.3988 61.2969 15.1334 62.2321 13.2175C63.1673 11.3015 64.4435 9.83101 66.062 8.80606C67.6799 7.78115 69.5136 7.2687 71.5622 7.2687C73.4619 7.2687 75.0951 7.69966 76.461 8.5609Z" fill="#2E4869"/>
<path d="M105.832 8.65009C107.331 7.75885 108.956 7.31334 110.708 7.31334V15.4677H108.526C106.507 15.4677 104.941 15.8985 103.828 16.7598C102.714 17.6217 102.158 19.0767 102.158 21.1267V32.4443H94.542V7.58063H102.158V12.2594C103.108 10.7445 104.332 9.54129 105.832 8.65009Z" fill="#2E4869"/>
<path d="M130.727 14.5095C129.821 13.6932 128.701 13.2844 127.365 13.2844C125.969 13.2844 124.811 13.7005 123.891 14.532C122.97 15.364 122.45 16.5818 122.332 18.1858H132.041C132.07 16.5524 131.632 15.327 130.727 14.5095ZM139.523 21.3938H122.287C122.376 23.2656 122.851 24.6098 123.713 25.4266C124.573 26.244 125.672 26.652 127.008 26.652C128.136 26.652 129.071 26.3698 129.814 25.8052C130.556 25.2415 131.046 24.5131 131.284 23.6217H139.345C139.018 25.3751 138.305 26.9416 137.207 28.323C136.108 29.7041 134.713 30.7889 133.02 31.5755C131.328 32.3631 129.442 32.7563 127.365 32.7563C124.93 32.7563 122.77 32.244 120.884 31.219C118.999 30.1945 117.522 28.7169 116.453 26.7856C115.385 24.8549 114.85 22.5972 114.85 20.0128C114.85 17.3989 115.377 15.1335 116.431 13.2175C117.485 11.3015 118.962 9.8311 120.862 8.8061C122.762 7.78124 124.93 7.26877 127.365 7.26877C129.829 7.26877 131.996 7.77432 133.867 8.78386C135.737 9.79426 137.184 11.2125 138.209 13.0391C139.233 14.866 139.746 16.9681 139.746 19.3443C139.746 19.9682 139.671 20.6518 139.523 21.3938Z" fill="#2E4869"/>
<path d="M8.45322 19.9954H20.7768V13.1724H8.45322V7.56786H22.9687V0.744936H0.854492V32.4229H22.9687V25.5999H8.45322V19.9954Z" fill="#84C455"/>
</svg>
