<svg width="64" height="64" viewBox="0 0 64 64" fill="none" xmlns="http://www.w3.org/2000/svg">
<path d="M33.25 50.75C33.25 51.4404 32.6904 52 32 52C31.3096 52 30.75 51.4404 30.75 50.75C30.75 50.0596 31.3096 49.5 32 49.5C32.6904 49.5 33.25 50.0596 33.25 50.75Z" fill="black"/>
<path d="M59.875 39.5C59.875 35.3643 56.5107 32 52.375 32C48.2393 32 44.875 35.3643 44.875 39.5C44.875 43.6357 48.2393 47 52.375 47C56.5107 47 59.875 43.6357 59.875 39.5ZM52.375 44.5C49.6182 44.5 47.375 42.2568 47.375 39.5C47.375 36.7432 49.6182 34.5 52.375 34.5C55.1318 34.5 57.375 36.7432 57.375 39.5C57.375 42.2568 55.1318 44.5 52.375 44.5Z" fill="black"/>
<path d="M52.375 47C49.2251 47 46.084 48.3076 43.9443 50.4277C41.1279 46.7266 36.7852 44.5 32 44.5C27.4175 44.5 22.9771 46.5908 20.0562 50.4277C17.916 48.3081 14.7754 47 11.625 47C5.32373 47 0 52.1519 0 58.25V60.75C0 61.4404 0.55957 62 1.25 62H62.75C63.4404 62 64 61.4404 64 60.75V58.25C64 52.1519 58.6763 47 52.375 47ZM2.5 58.25C2.5 53.5068 6.67871 49.5 11.625 49.5C14.3315 49.5 17.0156 50.6992 18.6772 52.6055C17.5786 54.7275 17 57.0928 17 59.5H2.5V58.25ZM32 47C38.9556 47 44.5 52.6436 44.5 59.5H19.5C19.5 52.5522 25.1577 47 32 47ZM61.5 59.5H47C47 57.0928 46.4214 54.7275 45.3228 52.6055C46.9844 50.6992 49.6685 49.5 52.375 49.5C57.3213 49.5 61.5 53.5068 61.5 58.25V59.5Z" fill="black"/>
<path d="M19.125 39.5C19.125 35.3643 15.7607 32 11.625 32C7.48926 32 4.125 35.3643 4.125 39.5C4.125 43.6357 7.48926 47 11.625 47C15.7607 47 19.125 43.6357 19.125 39.5ZM11.625 44.5C8.86816 44.5 6.625 42.2568 6.625 39.5C6.625 36.7432 8.86816 34.5 11.625 34.5C14.3818 34.5 16.625 36.7432 16.625 39.5C16.625 42.2568 14.3818 44.5 11.625 44.5Z" fill="black"/>
<path d="M42 34.5C42 28.9858 37.5142 24.5 32 24.5C26.4858 24.5 22 28.9858 22 34.5C22 40.0142 26.4858 44.5 32 44.5C37.5142 44.5 42 40.0142 42 34.5ZM32 42C27.8643 42 24.5 38.6357 24.5 34.5C24.5 30.3643 27.8643 27 32 27C36.1357 27 39.5 30.3643 39.5 34.5C39.5 38.6357 36.1357 42 32 42Z" fill="black"/>
<path d="M41.8922 9.27002C41.7453 8.81738 41.3542 8.48779 40.883 8.41943L35.4914 7.63672L33.0773 2.70117C32.8678 2.27197 32.4323 2 31.9547 2C31.4772 2 31.0417 2.27197 30.8317 2.70068L28.4181 7.63672L23.0265 8.41895C22.5553 8.4873 22.1642 8.81738 22.0172 9.27002C21.8703 9.72266 21.9928 10.2192 22.3336 10.5513L26.2379 14.3564L25.3166 19.73C25.236 20.1987 25.4289 20.6729 25.8141 20.9521C26.1969 21.2305 26.7067 21.27 27.1305 21.0474L31.9547 18.5107L36.7809 21.0474C37.2018 21.269 37.7121 21.2319 38.0973 20.9521C38.4821 20.6724 38.675 20.1987 38.5944 19.7295L37.672 14.3564L41.5758 10.5513C41.9167 10.2192 42.0392 9.72266 41.8922 9.27002ZM35.4557 13.0249C35.1613 13.312 35.0265 13.7261 35.0963 14.1313L35.7013 17.6562L32.5363 15.9922C32.172 15.8008 31.737 15.8008 31.3727 15.9922L28.2086 17.6562L28.8131 14.1313C28.8825 13.7256 28.7477 13.312 28.4533 13.0249L25.8927 10.5293L29.4303 10.0156C29.8395 9.95654 30.1925 9.69873 30.3737 9.32764L31.9547 6.09521L33.5353 9.32764C33.717 9.69922 34.07 9.95654 34.4787 10.0156L38.0168 10.5293L35.4557 13.0249Z" fill="black"/>
<path d="M60.5761 18.6387C60.4292 18.186 60.0381 17.8564 59.5669 17.7881L55.914 17.2573L54.2807 13.9468C54.0703 13.52 53.6362 13.25 53.1601 13.25C53.1601 13.25 53.1601 13.25 53.1596 13.25C52.6841 13.25 52.2495 13.52 52.039 13.9468L50.4048 17.2573L46.7514 17.7881C46.2807 17.8564 45.8896 18.186 45.7426 18.6387C45.5952 19.0913 45.7177 19.5879 46.0586 19.9199L48.7016 22.4976L48.0776 26.1353C47.9975 26.604 48.1899 27.0776 48.5752 27.3574C48.9599 27.6372 49.4702 27.6743 49.8911 27.4531L53.1596 25.7358L56.4272 27.4531C56.8481 27.6743 57.3589 27.6372 57.7436 27.3574C58.1284 27.0781 58.3208 26.604 58.2407 26.1353L57.6167 22.4976L60.2602 19.9199C60.601 19.5879 60.7231 19.0913 60.5761 18.6387ZM55.4013 21.1665C55.1064 21.4536 54.9721 21.8672 55.042 22.2725L55.3486 24.0615L53.7417 23.2173C53.3774 23.0259 52.9424 23.0259 52.5786 23.2173L50.9702 24.062L51.2773 22.2725C51.3467 21.8672 51.2124 21.4536 50.9179 21.1665L49.6172 19.898L51.4145 19.6372C51.8217 19.5781 52.1738 19.3223 52.3559 18.9536L53.1596 17.3252L53.9629 18.9531C54.145 19.3223 54.497 19.5781 54.9043 19.6372L56.7016 19.898L55.4013 21.1665Z" fill="black"/>
<path d="M18.0761 18.6387C17.9292 18.186 17.5381 17.8564 17.0669 17.7881L13.414 17.2573L11.7807 13.9468C11.5703 13.52 11.1362 13.25 10.6601 13.25C10.1841 13.25 9.74948 13.52 9.53903 13.9468L7.90476 17.2573L4.25144 17.7881C3.78073 17.8564 3.38962 18.186 3.24265 18.6387C3.09519 19.0913 3.21775 19.5879 3.55857 19.9199L6.20163 22.4976L5.5781 26.1353C5.49753 26.604 5.6904 27.0776 6.07517 27.3574C6.45993 27.6372 6.97019 27.6743 7.39157 27.4531L10.6596 25.7358L13.9272 27.4531C14.351 27.6758 14.8608 27.6357 15.2436 27.3574C15.6284 27.0781 15.8213 26.604 15.7407 26.1353L15.1167 22.4976L17.7602 19.9199C18.101 19.5879 18.2231 19.0913 18.0761 18.6387ZM12.9009 21.1665C12.6064 21.4536 12.4721 21.8672 12.5415 22.2725L12.8486 24.0615L11.2412 23.2173C10.8774 23.0259 10.4424 23.0259 10.0786 23.2173L8.4697 24.062L8.77683 22.2725C8.84665 21.8672 8.71189 21.4536 8.41745 21.1665L7.11667 19.8979L8.91452 19.6372C9.32126 19.5781 9.67331 19.3223 9.85544 18.9536L10.6592 17.3252L11.4624 18.9531C11.6445 19.3223 11.9966 19.5781 12.4038 19.6372L14.2011 19.8979L12.9009 21.1665Z" fill="black"/>
<path d="M37.4776 51.1368C36.9004 50.7574 36.1255 50.918 35.7466 51.4952C35.3672 52.0718 35.5279 52.8467 36.105 53.2261C37.2608 53.9854 38.1846 55.044 38.7764 56.2872C39.0723 56.9097 39.8174 57.1758 40.4419 56.8785C41.0655 56.5821 41.3301 55.836 41.0337 55.2129C40.2456 53.5567 39.0157 52.147 37.4776 51.1368Z" fill="black"/>
</svg>
