<svg width="64" height="64" viewBox="0 0 64 64" fill="none" xmlns="http://www.w3.org/2000/svg">
<g clip-path="url(#clip0_657_3051)">
<path d="M38.2508 40.331C39.043 40.331 39.7838 40.0187 40.337 39.4517L45.2508 34.4137C46.3723 33.2637 46.3491 31.4157 45.199 30.2941C44.0488 29.1727 42.2005 29.196 41.079 30.3458L38.1963 33.3011L37.6913 32.8101C36.5396 31.6906 34.6913 31.7162 33.5712 32.8678C32.4515 34.0195 32.4773 35.8675 33.6291 36.9873L36.2198 39.5063C36.7667 40.0381 37.4881 40.331 38.2508 40.331ZM34.9185 34.1776C35.3165 33.7683 35.9731 33.7598 36.3817 34.1572L37.5591 35.3021C37.9306 35.6635 38.5246 35.6553 38.8866 35.2845L42.4241 31.6577C42.8226 31.2491 43.479 31.2412 43.8872 31.6392C44.2957 32.0376 44.3038 32.6938 43.9057 33.1022L38.9918 38.1401C38.6121 38.5462 37.9203 38.5548 37.5297 38.1596L34.939 35.6406C34.5301 35.2428 34.5207 34.5865 34.9185 34.1776Z" fill="black"/>
<path d="M30.9894 40.9704C30.6769 40.5562 30.088 40.4737 29.6735 40.7862C29.2592 41.0987 29.177 41.6877 29.4894 42.1019C29.8315 42.5552 30.21 42.99 30.614 43.394C32.9239 45.7036 35.995 46.9755 39.2616 46.9755C42.5282 46.9755 45.5992 45.7036 47.9091 43.394C50.2191 41.0845 51.4911 38.0137 51.4911 34.7476C51.4911 31.4814 50.219 28.4107 47.9091 26.1012C43.1407 21.3336 35.3824 21.3337 30.614 26.1012C27.3631 29.3516 26.2127 34.0932 27.6119 38.4757C27.7696 38.97 28.2986 39.2425 28.7925 39.085C29.2867 38.9272 29.5596 38.3986 29.4017 37.9045C28.2174 34.1947 29.191 30.181 31.9427 27.4297C35.9782 23.3946 42.545 23.3946 46.5805 27.4297C48.5355 29.3845 49.6122 31.9834 49.6122 34.7477C49.6122 37.5121 48.5355 40.111 46.5805 42.0657C44.6256 44.0204 42.0264 45.097 39.2616 45.097C36.497 45.097 33.8976 44.0205 31.9426 42.0657C31.5999 41.7227 31.2791 41.3544 30.9894 40.9704Z" fill="black"/>
<path d="M62.7071 51.9089L56.7803 45.9827C56.4133 45.616 55.8185 45.6159 55.4515 45.9827L55.4153 46.019L53.1344 43.7385C54.6676 41.3747 55.5811 38.6436 55.7609 35.7933C55.7935 35.2755 55.4001 34.8294 54.8824 34.7966C54.365 34.7651 53.9185 35.1574 53.8856 35.675C53.6613 39.2336 52.1474 42.5836 49.6229 45.1077C46.7699 47.9605 43.0233 49.3885 39.2755 49.3921C39.2708 49.392 39.2661 49.3914 39.2613 49.3914H39.1866C35.4591 49.3726 31.7374 47.9451 28.8996 45.1077C26.1319 42.3405 24.6076 38.6611 24.6076 34.7475C24.6076 30.8339 26.1319 27.1545 28.8996 24.3873C34.613 18.6745 43.9095 18.6745 49.6229 24.3873C51.7509 26.515 53.1551 29.1989 53.684 32.149C53.7756 32.6596 54.2641 32.9989 54.7745 32.9079C55.2853 32.8164 55.625 32.3282 55.5335 31.8175C54.9365 28.4879 53.3521 25.4591 50.9515 23.0588C49.762 21.8694 48.4345 20.9003 47.0204 20.1499V12.5791C47.0196 12.3319 46.9198 12.0899 46.7453 11.9149L35.104 0.275125C34.9289 0.100875 34.687 0.000625 34.4395 0H2.81801C1.26401 0 -0.000363281 1.26413 -0.000363281 2.818V10.7134C-0.000363281 11.2321 0.420137 11.6528 0.939137 11.6528C1.45801 11.6528 1.87864 11.2323 1.87864 10.7134V2.818C1.87864 2.3 2.30001 1.87863 2.81814 1.87863H33.5004V10.7005C33.5004 12.2544 34.7648 13.5185 36.3188 13.5185H45.1418V19.2991C43.3088 18.6046 41.3763 18.2479 39.4406 18.227C39.4314 18.2257 39.4224 18.2239 39.4128 18.2239H18.4378C17.9189 18.2239 17.4983 18.6445 17.4983 19.1632C17.4983 19.682 17.9189 20.1026 18.4378 20.1026H31.591C30.2509 20.8034 28.9876 21.7004 27.8436 22.7932H18.4378C17.9189 22.7932 17.4983 23.2139 17.4983 23.7326C17.4983 24.2514 17.9189 24.672 18.4378 24.672H26.1528C24.6193 26.6584 23.5713 28.9461 23.0696 31.3883H18.4379C17.919 31.3883 17.4984 31.8089 17.4984 32.3276C17.4984 32.8464 17.919 33.267 18.4379 33.267H22.7953C22.752 33.7566 22.7291 34.2504 22.7291 34.7477C22.7291 35.1557 22.744 35.5615 22.7731 35.9644H18.438C17.9191 35.9644 17.4985 36.385 17.4985 36.9038C17.4985 37.4225 17.9191 37.8431 18.438 37.8431H23.018C23.4971 40.3857 24.5654 42.7682 26.1556 44.8269H18.438C17.9191 44.8269 17.4985 45.2474 17.4985 45.7663C17.4985 46.2851 17.9191 46.7056 18.438 46.7056H27.8474C28.9898 47.7965 30.251 48.692 31.5888 49.3919H18.4375C17.9186 49.3919 17.498 49.8125 17.498 50.3312C17.498 50.85 17.9186 51.2706 18.4375 51.2706H39.2613C41.2565 51.2704 43.2519 50.912 45.1415 50.1961V61.1825C45.1415 61.7004 44.7201 62.1219 44.202 62.1219H2.81801C2.30001 62.1219 1.87851 61.7005 1.87851 61.1825V14.4712C1.87851 13.9525 1.45789 13.5319 0.939012 13.5319C0.420137 13.5319 -0.000488281 13.9524 -0.000488281 14.4712V61.1825C-0.000363281 62.7359 1.26401 64 2.81801 64H44.2021C45.7561 64 47.0205 62.7359 47.0205 61.182V49.3449C47.4398 49.1224 47.8513 48.8804 48.2539 48.6194L50.5343 50.8994C50.1396 51.2439 50.1185 51.9004 50.4979 52.2641L56.4249 58.1904C58.0783 59.9135 61.0538 59.9134 62.707 58.1904C64.4305 56.5371 64.4304 53.562 62.7071 51.9089ZM36.3186 11.6399C35.8006 11.6399 35.3791 11.2185 35.3791 10.7005V3.20712L43.813 11.6399H36.3186ZM49.7864 47.4948C50.1873 47.1634 50.5765 46.8111 50.9515 46.4362C51.3243 46.0635 51.677 45.6744 52.01 45.2713L54.0865 47.3474L51.8628 49.5708L49.7864 47.4948ZM61.3785 56.8619C60.4245 57.8562 58.7076 57.856 57.7535 56.8619L52.4908 51.5999L56.1159 47.9753L61.3786 53.2373C62.3729 54.1914 62.373 55.9079 61.3785 56.8619Z" fill="black"/>
<path d="M8.5252 25.6004H12.6352C13.794 25.6004 14.7367 24.6579 14.7367 23.4994V19.3899C14.7367 18.2313 13.7941 17.2888 12.6352 17.2888H8.5252C7.36658 17.2888 6.42383 18.2313 6.42383 19.3899V23.4994C6.42383 24.6579 7.36658 25.6004 8.5252 25.6004ZM8.30283 19.3899C8.30283 19.2673 8.4027 19.1675 8.5252 19.1675H12.6352C12.758 19.1675 12.8577 19.2673 12.8577 19.3899V23.4994C12.8577 23.622 12.7578 23.7218 12.6352 23.7218H8.5252C8.40258 23.7218 8.30283 23.622 8.30283 23.4994V19.3899Z" fill="black"/>
<path d="M6.42383 36.6702C6.42383 37.8287 7.36645 38.7712 8.5252 38.7712H12.6352C13.794 38.7712 14.7367 37.8287 14.7367 36.6702V32.5607C14.7367 31.4022 13.7941 30.4597 12.6352 30.4597H8.5252C7.36658 30.4597 6.42383 31.4022 6.42383 32.5607V36.6702ZM8.30283 32.5607C8.30283 32.4381 8.4027 32.3383 8.5252 32.3383H12.6352C12.758 32.3383 12.8577 32.4381 12.8577 32.5607V36.6702C12.8577 36.7928 12.7578 36.8926 12.6352 36.8926H8.5252C8.40258 36.8926 8.30283 36.7928 8.30283 36.6702V32.5607Z" fill="black"/>
<path d="M6.42383 50.1088C6.42383 51.2673 7.36645 52.2098 8.5252 52.2098H12.6352C13.794 52.2098 14.7367 51.2673 14.7367 50.1088V45.9993C14.7367 44.8406 13.7941 43.8981 12.6352 43.8981H8.5252C7.36658 43.8981 6.42383 44.8406 6.42383 45.9993V50.1088ZM8.30283 45.9993C8.30283 45.8766 8.4027 45.7769 8.5252 45.7769H12.6352C12.758 45.7769 12.8577 45.8766 12.8577 45.9993V50.1088C12.8577 50.2314 12.7578 50.3311 12.6352 50.3311H8.5252C8.40258 50.3311 8.30283 50.2314 8.30283 50.1088V45.9993Z" fill="black"/>
</g>
<defs>
<clipPath id="clip0_657_3051">
<rect width="64" height="64" fill="white"/>
</clipPath>
</defs>
</svg>
