<svg width="64" height="64" viewBox="0 0 64 64" fill="none" xmlns="http://www.w3.org/2000/svg">
<path d="M55.1632 0H8.83666C5.96204 0 3.62329 2.33875 3.62329 5.21337V26.7854C3.62329 29.6601 5.96191 31.9987 8.83653 31.9987H10.7332L15.8583 38.873C16.4158 39.6207 17.2538 40.032 18.1373 40.032C18.4368 40.032 18.7415 39.9848 19.0423 39.8873C20.2303 39.5023 21.0088 38.4467 21.026 37.1982L21.0975 31.9988H26.8467C26.4877 32.8827 26.2881 33.8477 26.2881 34.8589C26.2881 37.2929 27.4357 39.4624 29.2165 40.8595C23.4885 42.8935 19.3885 48.2443 19.3885 54.5088V61.4986H11.9004C11.2098 61.4986 10.6499 62.0585 10.6499 62.7491C10.6499 63.4398 11.2098 63.9996 11.9004 63.9996H53.2453C53.9359 63.9996 54.4958 63.4398 54.4958 62.7491C54.4958 62.0585 53.9359 61.4986 53.2453 61.4986H49.2673V54.509C49.2673 48.032 44.884 42.5322 38.8503 40.6647C40.4942 39.2649 41.5397 37.1823 41.5397 34.8591C41.5397 30.6543 38.1188 27.2334 33.9141 27.2334C31.7975 27.2334 29.8801 28.1008 28.4972 29.4979H19.8644C19.1805 29.4979 18.6234 30.0474 18.614 30.7312L18.5255 37.1638C18.5225 37.3814 18.3858 37.4712 18.2714 37.5083C18.1573 37.5452 17.9936 37.5527 17.8636 37.3784L12.3635 30.0011C12.1275 29.6844 11.7559 29.4979 11.361 29.4979H8.83666C7.34103 29.4979 6.12429 28.2812 6.12429 26.7856V5.21337C6.12429 3.71774 7.34103 2.50087 8.83666 2.50087H55.1632C56.6588 2.50087 57.8756 3.71762 57.8756 5.21337V26.7854C57.8756 28.2811 56.6588 29.4978 55.1632 29.4978H50.3847C49.6941 29.4978 49.1342 30.0577 49.1342 30.7483C49.1342 31.4389 49.6941 31.9988 50.3847 31.9988H55.1632C58.0378 31.9988 60.3764 29.6602 60.3764 26.7856V5.21337C60.3767 2.33875 58.0378 0 55.1632 0ZM46.7665 54.5089V61.4988H42.6438V54.9504C42.6438 54.2598 42.084 53.6999 41.3933 53.6999C40.7027 53.6999 40.1428 54.2598 40.1428 54.9504V61.4988H28.7344V54.9504C28.7344 54.2598 28.1745 53.6999 27.4839 53.6999C26.7932 53.6999 26.2334 54.2598 26.2334 54.9504V61.4988H21.89V54.5089C21.89 47.8787 27.4699 42.4847 34.3282 42.4847C41.1866 42.4847 46.7665 47.8787 46.7665 54.5089ZM33.9142 29.7343C36.74 29.7343 39.0388 32.0332 39.0388 34.8589C39.0388 37.6847 36.74 39.9835 33.9142 39.9835C31.0885 39.9835 28.7896 37.6847 28.7896 34.8589C28.7896 32.0332 31.0885 29.7343 33.9142 29.7343Z" fill="black"/>
<path d="M58.6107 64C59.3013 64 59.8611 63.4402 59.8611 62.7496C59.8611 62.0591 59.3013 61.4993 58.6107 61.4993C57.9202 61.4993 57.3604 62.0591 57.3604 62.7496C57.3604 63.4402 57.9202 64 58.6107 64Z" fill="black"/>
<path d="M21.3547 16.6853C22.0454 16.6853 22.6052 16.1255 22.6052 15.4348C22.6052 14.7442 22.0454 14.1843 21.3547 14.1843C20.6641 14.1843 20.1042 14.7442 20.1042 15.4348C20.1042 16.1255 20.6641 16.6853 21.3547 16.6853Z" fill="black"/>
<path d="M28.6502 16.6853C29.3408 16.6853 29.9007 16.1255 29.9007 15.4348C29.9007 14.7442 29.3408 14.1843 28.6502 14.1843C27.9595 14.1843 27.3997 14.7442 27.3997 15.4348C27.3997 16.1255 27.9595 16.6853 28.6502 16.6853Z" fill="black"/>
<path d="M35.1765 16.6853C35.8672 16.6853 36.427 16.1255 36.427 15.4348C36.427 14.7442 35.8672 14.1843 35.1765 14.1843C34.4859 14.1843 33.926 14.7442 33.926 15.4348C33.926 16.1255 34.4859 16.6853 35.1765 16.6853Z" fill="black"/>
<path d="M42.3181 16.6853C43.0088 16.6853 43.5686 16.1255 43.5686 15.4348C43.5686 14.7442 43.0088 14.1843 42.3181 14.1843C41.6275 14.1843 41.0676 14.7442 41.0676 15.4348C41.0676 16.1255 41.6275 16.6853 42.3181 16.6853Z" fill="black"/>
<path d="M45.0415 31.9451C45.7321 31.9451 46.292 31.3852 46.292 30.6946C46.292 30.0039 45.7321 29.4441 45.0415 29.4441C44.3509 29.4441 43.791 30.0039 43.791 30.6946C43.791 31.3852 44.3509 31.9451 45.0415 31.9451Z" fill="black"/>
</svg>
