<svg width="14" height="13" viewBox="0 0 14 13" fill="none" xmlns="http://www.w3.org/2000/svg">
<path d="M13.2266 1.85156L8.53906 6.53906L13.1875 11.1875C13.5781 11.5391 13.5781 12.125 13.1875 12.4766C12.8359 12.8672 12.25 12.8672 11.8984 12.4766L7.21094 7.82812L2.5625 12.4766C2.21094 12.8672 1.625 12.8672 1.27344 12.4766C0.882812 12.125 0.882812 11.5391 1.27344 11.1484L5.92188 6.5L1.27344 1.85156C0.882812 1.5 0.882812 0.914062 1.27344 0.523438C1.625 0.171875 2.21094 0.171875 2.60156 0.523438L7.25 5.21094L11.8984 0.5625C12.25 0.171875 12.8359 0.171875 13.2266 0.5625C13.5781 0.914062 13.5781 1.5 13.2266 1.85156Z" fill="#818181"/>
</svg>
