<svg width="64" height="64" viewBox="0 0 64 64" fill="none" xmlns="http://www.w3.org/2000/svg"><g clip-path="url(#a)" fill="#000"><path d="M22.348 24.98c.116-8.95-10.355-14.458-17.582-9.196a.937.937 0 0 0 1.083 1.53c6.018-4.38 14.722.216 14.625 7.667 0 5.164-4.168 9.366-9.292 9.366-6.86.086-11.473-7.577-8.262-13.649a.937.937 0 0 0-1.669-.853c-3.855 7.293 1.69 16.48 9.931 16.377 6.157 0 11.166-5.043 11.166-11.241Z"/><path d="M8.037 29.93a.938.938 0 0 0 .877-.605l.516-1.365h3.51l.51 1.362a.937.937 0 0 0 1.755-.658l-2.964-7.912a1.119 1.119 0 0 0-2.08-.023l-.008.02-2.992 7.913c-.216.57.284 1.269.876 1.269Zm3.156-6.632 1.044 2.787H10.14l1.054-2.787ZM35.66 13.092c0-.994-.468-1.879-1.194-2.446 1.253-1.783-.096-4.38-2.292-4.347H29.86a.937.937 0 0 0-.937.938v8.025c0 .466.466.937.941.937 0 0 2.128-.01 2.714-.01 1.7 0 3.082-1.39 3.082-3.097Zm-3.486-4.918c1.185.038 1.184 1.782-.003 1.818l-1.373.003V8.174h1.376Zm-1.377 3.698a341.09 341.09 0 0 1 1.781-.003c1.598.057 1.597 2.389 0 2.446l-1.78.005v-2.448ZM52.834 13.74c-6.157 0-11.166 5.042-11.166 11.24.563 14.893 21.772 14.889 22.332 0 0-6.198-5.009-11.24-11.166-11.24Zm0 20.607c-5.123 0-9.291-4.202-9.291-9.366.468-12.41 18.116-12.406 18.583 0 0 5.164-4.168 9.366-9.292 9.366Z"/><path d="M56.114 27.14a.937.937 0 0 0-1.32.12c-1.748 1.896-4.917.149-4.835-2.28-.032-2.418 2.766-3.934 4.746-2.552a.937.937 0 0 0 1.054-1.55c-3.193-2.232-7.725.2-7.675 4.103-.11 4.146 5.332 6.75 8.15 3.48a.938.938 0 0 0-.12-1.321ZM48.423 49.19a.937.937 0 0 0-.937.937c0 1.91-.707 3.736-1.986 5.136l-1.778 1.92c-.16.172-.25.4-.25.636l-.004 5.235a.937.937 0 1 0 1.874.001l.004-4.868 1.533-1.655a9.472 9.472 0 0 0 2.482-6.405.937.937 0 0 0-.938-.937Z"/><path d="M43.953 41.847v-2.345c.031-2.355 3.577-2.048 3.527.26l.003 4.923a.937.937 0 0 0 1.875-.001l-.003-4.923c.061-2.92-3.183-4.684-5.632-3.264-.78-2.136-3.64-2.923-5.496-1.703-.831-1.794-3.299-2.408-5.013-1.521v-10.85C47.152 20.4 46.082.522 32.008.007c-11.134.052-15.322 14.72-5.996 20.725-.22.976-.022 18.247-.08 24.9l-6.064-5.374c-1.35-1.197-3.544-.79-4.698.44-1.266 1.349-1.354 3.263-.215 4.656l.014.016 10.964 12.795v4.888a.937.937 0 0 0 1.875 0V57.82c0-.223-.08-.44-.226-.61L16.4 44.16c-.652-.805-.335-1.676.137-2.178.461-.493 1.292-.856 2.127-.285l7.585 6.72a.938.938 0 0 0 1.559-.701c0-1.04-.01-25.491-.012-26.14-.003-.646.25-1.122.75-1.413.596-.346 1.43-.346 2.03-.002.503.29.76.765.763 1.411v.006c-.002-.003.002 17.293 0 17.292.04 1.24 1.836 1.24 1.875 0v-2.474c0-1.004.77-1.65 1.743-1.65 1.294 0 1.752.888 1.752 1.65v3.762c.038 1.237 1.836 1.24 1.875 0V37.69c0-1.182.904-1.602 1.678-1.602.675 0 1.817.365 1.817 1.731v4.028c.035 1.235 1.837 1.242 1.874 0ZM27.605 18.542c-.26.152-.493.332-.698.536-7.63-5.07-4.098-17.157 5.101-17.195 11.675.421 12.61 16.92 1.067 18.67a3.324 3.324 0 0 0-1.565-2.016c-1.17-.674-2.74-.672-3.905.005Z"/></g><defs><clipPath id="a"><path fill="#fff" d="M0 0h64v64H0z"/></clipPath></defs></svg>