<svg width="36" height="36" viewBox="0 0 36 36" fill="none" xmlns="http://www.w3.org/2000/svg"><path d="M15 27.99v1l4.5-3.375a3.025 3.025 0 0 1 1.813-.625H30c.5 0 1-.437 1-1v-18c0-.5-.5-1-1-1H6c-.563 0-1 .5-1 1v18c0 .563.438 1 1 1h6c1.625 0 3 1.375 3 3Zm-.063 4.813-.312.187-1.063.813c-.312.25-.687.25-1.062.125-.313-.188-.5-.5-.5-.938v-5H6c-2.25 0-4-1.75-4-4v-18c0-2.187 1.75-4 4-4h24c2.188 0 4 1.813 4 4v18c0 2.25-1.813 4-4 4h-8.688L15 32.74l-.063.063ZM14 12.99c-1.125 0-2-.875-2-2 0-1.062.875-2 2-2 1.063 0 2 .938 2 2 0 1.125-.938 2-2 2Zm8 0c-1.125 0-2-.875-2-2 0-1.062.875-2 2-2 1.063 0 2 .938 2 2 0 1.125-.938 2-2 2Zm-10.625 3.938a1.549 1.549 0 0 1 2.125.062c1.063 1.25 2.688 2 4.438 2 1.812 0 3.375-.75 4.5-2a1.549 1.549 0 0 1 2.125-.062c.625.5.687 1.5.125 2.062a8.976 8.976 0 0 1-6.75 3c-2.625 0-5.063-1.125-6.688-3-.563-.562-.5-1.562.125-2.062Z" fill="#6C757D"/></svg>