<svg width="36" height="36" viewBox="0 0 36 36" fill="none" xmlns="http://www.w3.org/2000/svg"><path d="M15 27.99v1l4.5-3.375a3.03 3.03 0 0 1 1.813-.625H30c.5 0 1-.437 1-1v-18c0-.5-.5-1-1-1H6c-.562 0-1 .5-1 1v18c0 .563.438 1 1 1h6c1.625 0 3 1.375 3 3m-.062 4.813-.313.187-1.062.813c-.313.25-.688.25-1.063.125-.312-.188-.5-.5-.5-.938v-5H6c-2.25 0-4-1.75-4-4v-18c0-2.187 1.75-4 4-4h24c2.188 0 4 1.813 4 4v18c0 2.25-1.812 4-4 4h-8.687L15 32.74zM14 12.99c-1.125 0-2-.875-2-2 0-1.062.875-2 2-2 1.063 0 2 .938 2 2 0 1.125-.937 2-2 2m8 0c-1.125 0-2-.875-2-2 0-1.062.875-2 2-2 1.063 0 2 .938 2 2 0 1.125-.937 2-2 2m-10.625 3.938a1.55 1.55 0 0 1 2.125.062c1.063 1.25 2.688 2 4.438 2 1.812 0 3.375-.75 4.5-2a1.55 1.55 0 0 1 2.125-.062c.625.5.687 1.5.125 2.062a8.98 8.98 0 0 1-6.75 3c-2.625 0-5.063-1.125-6.688-3-.562-.562-.5-1.562.125-2.062" fill="#6C757D"/></svg>