<svg width="128" height="128" viewBox="0 0 128 128" fill="none" xmlns="http://www.w3.org/2000/svg"><g clip-path="url(#a)" fill="#8C8C8C"><path d="m125.71 90.705-8.588-26.084a1.875 1.875 0 0 0-3.562 1.172l8.088 24.567a5 5 0 0 0-.74-.06h-7.255l-9.578-29.094V42.07h.731c.564 0 1.062.36 1.239.897l4.621 14.038a1.876 1.876 0 0 0 3.563-1.172l-4.622-14.039a5.045 5.045 0 0 0-4.801-3.474H76.785A23.5 23.5 0 0 0 64 34.555a23.5 23.5 0 0 0-12.785 3.765H23.194a5.045 5.045 0 0 0-4.801 3.474L2.29 90.706a5 5 0 0 0-.253 1.58v13.356a1.875 1.875 0 1 0 3.75 0V95.354c0-.719.585-1.304 1.304-1.304h23.475c.495 0 .955.287 1.172.732l4.613 9.445a5.09 5.09 0 0 0 4.542 2.836h46.213c1.918 0 3.7-1.113 4.542-2.836l4.613-9.445a1.31 1.31 0 0 1 1.172-.732h23.475c.72 0 1.305.585 1.305 1.305v27.59c0 .72-.585 1.305-1.305 1.305H7.091c-.72 0-1.304-.585-1.304-1.305v-8.047a1.875 1.875 0 0 0-3.75 0v8.047A5.06 5.06 0 0 0 7.09 128H120.91a5.06 5.06 0 0 0 5.054-5.055v-30.66c0-.537-.085-1.069-.253-1.58m-25.385-33.126a5 5 0 0 0-1.145-.132H87.618a23.54 23.54 0 0 0-6.352-15.378h19.059zm-59.943-.132H28.819a5 5 0 0 0-1.145.133V42.07h19.06c-3.79 4.057-6.17 9.445-6.352 15.377M6.352 90.361l15.603-47.395a1.3 1.3 0 0 1 1.239-.897h.73v19.138L14.346 90.3H7.091a5 5 0 0 0-.74.06m86.54 2.775-4.614 9.446a1.31 1.31 0 0 1-1.172.731H40.893c-.494 0-.954-.287-1.172-.732l-4.613-9.445a5.09 5.09 0 0 0-4.541-2.836H18.295l9.286-28.206a1.3 1.3 0 0 1 1.239-.897h11.743a23.7 23.7 0 0 0 5.081 11.87 23.72 23.72 0 0 0 13.205 8.184 1.876 1.876 0 0 0 .814-3.661 19.95 19.95 0 0 1-11.107-6.887 19.92 19.92 0 0 1-4.437-12.519c0-10.962 8.919-19.88 19.88-19.88 10.963 0 19.882 8.918 19.882 19.88 0 9.346-6.627 17.526-15.756 19.452a1.875 1.875 0 1 0 .774 3.67 23.7 23.7 0 0 0 13.378-8.142 23.67 23.67 0 0 0 5.159-11.967H99.18c.564 0 1.062.36 1.239.897l9.286 28.206H97.433a5.09 5.09 0 0 0-4.542 2.836"/><path d="M13.478 119.348h6.862a1.875 1.875 0 1 0 0-3.75h-6.862a1.875 1.875 0 0 0 0 3.75M13.478 113.491h6.862a1.875 1.875 0 0 0 0-3.75h-6.862a1.875 1.875 0 1 0 0 3.75M68.323 66.536a1.875 1.875 0 0 0 1.218-3.301c-1.545-1.32-3.598-2.05-5.78-2.057-2.18-.005-4.24.712-5.794 2.022a1.875 1.875 0 1 0 2.418 2.867c.858-.724 2.077-1.139 3.347-1.139h.017c1.276.004 2.5.426 3.358 1.159.353.301.786.449 1.216.449M53.672 54.141h-.022a1.873 1.873 0 0 0-1.874 1.865 1.885 1.885 0 0 0 1.876 1.885h.01a1.875 1.875 0 0 0 .01-3.75M74.166 57.88q.021.002.043.003.067.007.138.008h.018000000000000002q.093 0 .184-.01a1.875 1.875 0 0 0-.135-3.737q-.022-.002-.046-.003h-.033c-1.03 0-1.858.833-1.864 1.865a1.884 1.884 0 0 0 1.695 1.875M47.074 8.884c.366.366.846.549 1.325.549.48 0 .96-.183 1.326-.55l1.516-1.515 1.516 1.516c.366.366.846.549 1.325.549a1.875 1.875 0 0 0 1.326-3.2l-1.516-1.516L55.408 3.2A1.875 1.875 0 1 0 52.757.549L51.24 2.065 49.725.549a1.875 1.875 0 1 0-2.651 2.652l1.515 1.515-1.515 1.516a1.875 1.875 0 0 0 0 2.652M33.715 28.44c4.72 0 8.56-3.84 8.56-8.562 0-4.72-3.84-8.56-8.56-8.56s-8.562 3.84-8.562 8.56 3.841 8.562 8.562 8.562m0-13.372a4.817 4.817 0 0 1 4.81 4.81 4.817 4.817 0 0 1-4.81 4.812 4.817 4.817 0 0 1-4.812-4.811 4.817 4.817 0 0 1 4.812-4.812M89.481 27.283c.366.366.846.55 1.326.55s.96-.184 1.326-.55l1.516-1.516 1.515 1.516c.366.366.846.55 1.326.55s.96-.184 1.326-.55a1.875 1.875 0 0 0 0-2.652L96.3 23.117l1.516-1.516a1.875 1.875 0 1 0-2.652-2.652l-1.515 1.516-1.516-1.515A1.875 1.875 0 1 0 89.48 21.6l1.516 1.516-1.516 1.515a1.875 1.875 0 0 0 0 2.652M63.897 27h.006a1.875 1.875 0 0 0 1.875-1.87l.016-5.583a1.875 1.875 0 0 0-1.87-1.88h-.005a1.875 1.875 0 0 0-1.875 1.869l-.017 5.583a1.875 1.875 0 0 0 1.87 1.88M51.712 21.052a1.875 1.875 0 0 0-.646 2.572l2.901 4.844a1.874 1.874 0 0 0 2.572.645 1.875 1.875 0 0 0 .645-2.572l-2.9-4.844a1.875 1.875 0 0 0-2.572-.645M71.242 29.184a1.874 1.874 0 0 0 2.576-.63l2.93-4.828a1.875 1.875 0 1 0-3.206-1.946l-2.93 4.828a1.875 1.875 0 0 0 .63 2.575M81.115 16.748c3.962 0 7.186-3.224 7.186-7.186 0-3.963-3.224-7.186-7.186-7.186-3.963 0-7.186 3.223-7.186 7.186s3.223 7.186 7.186 7.186m0-10.622a3.44 3.44 0 0 1 3.436 3.436 3.44 3.44 0 0 1-3.436 3.436 3.44 3.44 0 0 1-3.436-3.436 3.44 3.44 0 0 1 3.436-3.436"/></g><defs><clipPath id="a"><path fill="#fff" d="M0 0h128v128H0z"/></clipPath></defs></svg>