<svg width="22" height="22" viewBox="0 0 22 22" fill="none" xmlns="http://www.w3.org/2000/svg"><path opacity=".6" d="M11 21c-3.594 0-6.875-1.875-8.672-5-1.797-3.086-1.797-6.875 0-10C4.125 2.914 7.406 1 11 1c3.555 0 6.836 1.914 8.633 5 1.797 3.125 1.797 6.914 0 10A9.926 9.926 0 0 1 11 21ZM9.125 4.75a.642.642 0 0 0-.625.625V6H7.25C6.547 6 6 6.586 6 7.25V8.5h10V7.25C16 6.586 15.414 6 14.75 6H13.5v-.625c0-.313-.313-.625-.625-.625a.642.642 0 0 0-.625.625V6h-2.5v-.625c0-.313-.313-.625-.625-.625ZM6 14.75c0 .703.547 1.25 1.25 1.25h7.5c.664 0 1.25-.547 1.25-1.25v-5H6v5Z" fill="#888"/></svg>