<svg width="300" height="18" viewBox="0 0 300 18" fill="none" xmlns="http://www.w3.org/2000/svg"><path fill-rule="evenodd" clip-rule="evenodd" d="M61.134 8.557v-.048C61.134 3.742 64.903 0 70.015 0c2.898 0 4.949.888 6.694 2.384L74.02 5.587c-1.178-.981-2.357-1.542-3.98-1.542-2.382 0-4.219 1.987-4.219 4.49v.046c0 2.641 1.861 4.533 4.477 4.533 1.106 0 1.955-.233 2.638-.676V10.45h-3.25V7.131h7.586v7.363c-1.743 1.427-4.17 2.527-7.164 2.527-5.136 0-8.975-3.507-8.975-8.464ZM46.19.327h13.194v3.976h-8.622v2.782h7.798v3.763h-7.798v5.846H46.19V.327Zm36.457 0h-5.112l6.69 16.483h4.243L95.161.327h-5.02l-3.747 10.357L82.648.327Z" fill="#FFF"/><path d="M0 .321 14.544 16.68H27.27L12.727.32H0Z" fill="#FFF"/><path d="M30.938 10.061 41.81.321H29.087l-5.8 5.193 7.65 4.547Z" fill="#2A84C2"/><path fill-rule="evenodd" clip-rule="evenodd" d="M119.226 8.464c0-4.725 3.664-8.396 8.563-8.396 4.9 0 8.563 3.718 8.541 8.396-.023 4.747-3.664 8.513-8.541 8.49-4.899-.024-8.563-3.813-8.563-8.49Zm4.473 0c0 2.502 1.82 4.537 4.09 4.537 2.248 0 4.068-2.012 4.068-4.537 0-2.503-1.82-4.42-4.068-4.42-2.27 0-4.09 1.94-4.09 4.42ZM291.459.068c-4.899 0-8.563 3.671-8.563 8.396 0 4.677 3.664 8.466 8.563 8.49 4.877.023 8.518-3.743 8.541-8.49.022-4.678-3.641-8.396-8.541-8.396Zm0 12.933c-2.27 0-4.09-2.035-4.09-4.537 0-2.48 1.82-4.42 4.09-4.42 2.248 0 4.068 1.917 4.068 4.42 0 2.525-1.82 4.537-4.068 4.537ZM268.534.324v3.719h4.697v12.652h4.473V4.043h4.719V.324h-13.889Zm-17.161 0h4.518l6.203 8.91V.325h4.472v16.371h-4.54l-6.18-8.934v8.934h-4.473V.325Zm-2.6 0h-12.654v16.371h12.654v-3.671h-8.181v-2.737h7.057V6.732h-7.057V3.996h8.181V.324Zm-33.878 16.371V.325h4.517l4.54 7.062 4.585-7.063h4.518v16.371h-4.473V7.761l-4.63 7.32-4.585-7.296v8.91h-4.472Zm-3.185 0V.325h-4.472v16.37h4.472Zm-13.664.235c-4.697 0-8.563-3.204-8.563-8.372 0-5.099 3.911-8.42 8.563-8.443 3.349 0 5.709 1.59 6.855 3.32l-2.989 2.293c-.652-.912-1.708-1.871-3.641-1.871-2.315 0-4.315 1.847-4.315 4.7 0 2.83 1.955 4.608 4.293 4.608 2.27 0 3.236-1.1 3.753-1.918l2.877 2.082c-.832 1.52-3.079 3.601-6.833 3.601ZM187.931.324h-12.653v16.371h12.653v-3.671h-8.181v-2.737h7.057V6.732h-7.057V3.996h8.181V.324Zm-31.002 0h4.45v6.338h6.338V.324h4.473v16.371h-4.473v-6.314h-6.315v6.314h-4.473V.325Zm-13.744 0h-4.518v16.371h4.473V7.761l6.181 8.934h4.54V.325h-4.473v8.91l-6.203-8.91Zm-39.959 8.234c0 5.168 3.866 8.372 8.563 8.372 3.753 0 6.001-2.081 6.832-3.601l-2.876-2.082c-.517.819-1.484 1.918-3.754 1.918-2.337 0-4.293-1.777-4.293-4.607 0-2.854 2.001-4.701 4.316-4.701 1.933 0 2.989.959 3.641 1.87l2.989-2.291c-1.146-1.73-3.506-3.321-6.855-3.321-4.652.023-8.563 3.344-8.563 8.443Z" fill="#2A84C2"/></svg>