<svg width="141" height="47" viewBox="0 0 141 47" fill="none" xmlns="http://www.w3.org/2000/svg"><path d="M.9 41.52H3.59v.555h-2.08v1.417h1.823v.535H1.51v1.604H3.65v.554H.9zM6.943 43.711l-1.532-2.19h.727l.715 1.03c.167.239.335.483.502.741h.013q.26-.398.502-.747l.708-1.024h.683l-1.526 2.19 1.745 2.474h-.734l-.895-1.276c-.187-.264-.36-.521-.528-.773H7.31a30 30 0 0 1-.515.754l-.908 1.295h-.689zM12.136 44.349h1.674l-.38-.966a61 61 0 0 1-.444-1.154h-.013c-.141.38-.296.773-.457 1.173zm.554-2.828h.586l1.925 4.664h-.657l-.521-1.302h-2.1l-.527 1.302h-.625zM18.256 43.46q-.317-.456-.625-.921l-.012.006c.006.277.012.631.012 1.011v2.629h-.592V41.52h.592l1.655 2.37 1.655-2.37h.586v4.664h-.612v-2.629c0-.38.006-.734.013-1.01l-.013-.007q-.307.465-.625.92l-1.017 1.457zM23.854 41.52h2.691v.555h-2.08v1.417h1.823v.535h-1.822v1.604h2.137v.554h-2.749zM31.53 46.185V41.52h.58l1.951 2.59c.27.354.54.72.805 1.088l.013-.007a85 85 0 0 1-.013-1.326V41.52h.592v4.664h-.58l-1.95-2.59c-.27-.354-.54-.721-.805-1.089l-.013.007c.007.406.013.876.013 1.327v2.345zM38.662 44.349h1.674l-.38-.966a61 61 0 0 1-.445-1.154H39.5a47 47 0 0 1-.458 1.173zm.553-2.828h.586l1.925 4.664h-.656l-.522-1.302h-2.099l-.528 1.302h-.624zM45.573 41.45c.49 0 .947.122 1.314.328v.67a2.26 2.26 0 0 0-1.32-.431c-1.062 0-1.81.799-1.81 1.836s.748 1.836 1.861 1.836c.515 0 .972-.174 1.34-.47v.676c-.374.238-.883.36-1.372.36-1.416 0-2.44-1.024-2.44-2.39 0-1.326.966-2.415 2.427-2.415M49.073 41.52h.611v4.665h-.611zM54.119 45.689c1.017 0 1.758-.812 1.758-1.836s-.74-1.836-1.758-1.836c-1.017 0-1.758.811-1.758 1.836s.74 1.836 1.758 1.836m0-4.239c1.352 0 2.37 1.05 2.37 2.403s-1.018 2.402-2.37 2.402-2.37-1.05-2.37-2.402 1.018-2.403 2.37-2.403M58.552 46.185V41.52h.58l1.95 2.59c.27.354.54.72.805 1.088l.013-.007a86 86 0 0 1-.013-1.326V41.52h.592v4.664h-.58l-1.95-2.59c-.27-.354-.54-.721-.805-1.089l-.013.007c.007.406.013.876.013 1.327v2.345zM65.682 44.349h1.674l-.38-.966a61 61 0 0 1-.444-1.154h-.013c-.141.38-.296.773-.457 1.173zm.554-2.828h.586l1.925 4.664h-.657l-.522-1.302H65.47l-.528 1.302h-.625zM70.585 41.52h.612v4.11h2.202v.555h-2.814zM79.46 45.63c.56 0 1.01-.07 1.384-.309.444-.283.753-.811.753-1.468 0-.677-.328-1.18-.747-1.456-.405-.27-.901-.322-1.403-.322h-.599v3.556zm-1.224-4.11h1.282c.618 0 1.178.097 1.648.381.67.406 1.043 1.121 1.043 1.932 0 .773-.335 1.462-.927 1.881-.496.348-1.114.47-1.919.47h-1.127zM84.253 41.52h2.692v.555h-2.08v1.417h1.822v.535h-1.822v1.604h2.138v.554h-2.75zM93.334 43.685c.412 0 .702-.051.914-.212a.69.69 0 0 0 .277-.58.72.72 0 0 0-.38-.663c-.251-.136-.547-.155-.998-.155h-.605v1.61zm-1.404-2.164h1.262c.47 0 .92.02 1.3.232.387.212.644.573.644 1.088 0 .503-.244.883-.598 1.096-.168.102-.341.16-.535.193l1.494 2.055h-.74l-1.423-1.997h-.792v1.997h-.612zM97.375 41.52h2.691v.555h-2.08v1.417h1.822v.535h-1.822v1.604h2.138v.554h-2.75zM102.098 45.231c.431.322.978.464 1.39.464.554 0 .947-.251.947-.76 0-.6-.547-.702-1.159-.876-.657-.187-1.294-.458-1.294-1.308 0-.825.599-1.301 1.506-1.301.438 0 .966.11 1.34.348v.644a2.5 2.5 0 0 0-1.352-.432c-.522 0-.889.226-.889.703 0 .58.541.676 1.107.837.677.193 1.346.464 1.346 1.353 0 .85-.624 1.352-1.558 1.352-.451 0-.985-.122-1.384-.354zM107.104 41.52h.612v4.665h-.612zM111.268 45.63c.56 0 1.011-.07 1.384-.309.445-.283.754-.811.754-1.468 0-.677-.329-1.18-.747-1.456-.406-.27-.902-.322-1.404-.322h-.598v3.556zm-1.223-4.11h1.281c.618 0 1.178.097 1.648.381.67.406 1.044 1.121 1.044 1.932 0 .773-.336 1.462-.928 1.881-.496.348-1.114.47-1.918.47h-1.127zM117.092 40.007h.618l.728 1.057h-.483l-.554-.677-.553.677h-.483zm-1.03 1.514h2.691v.554h-2.079v1.417h1.822v.535h-1.822v1.604h2.137v.554h-2.749zM120.895 46.185V41.52h.579l1.951 2.59c.27.354.541.72.805 1.088l.013-.007a79 79 0 0 1-.013-1.326V41.52h.592v4.664h-.579l-1.951-2.59a46 46 0 0 1-.805-1.089l-.013.007c.006.406.013.876.013 1.327v2.345zM129.319 41.45a2.7 2.7 0 0 1 1.313.328v.67a2.26 2.26 0 0 0-1.32-.431c-1.062 0-1.809.799-1.809 1.836s.747 1.836 1.861 1.836c.515 0 .972-.174 1.339-.47v.676c-.373.238-.882.36-1.371.36-1.417 0-2.44-1.024-2.44-2.39 0-1.326.965-2.415 2.427-2.415M132.819 41.52h.611v4.665h-.611zM136.635 44.349h1.674l-.38-.966a64 64 0 0 1-.444-1.154h-.013c-.141.38-.296.773-.457 1.173zm.554-2.828h.586l1.925 4.664h-.657l-.521-1.302h-2.099l-.528 1.302h-.624z" fill="#464C4C"/><path d="M140.3 36.833H.3v1.664h140z" fill="#84C455"/><path d="M52.345 10.165q2.516 2.853 2.517 7.842v14.437h-7.616V18.9q0-2.496-1.314-3.9t-3.496-1.403q-2.316 0-3.674 1.47-1.358 1.471-1.358 4.19v13.188h-7.616V7.581h7.616v4.545a8.2 8.2 0 0 1 3.184-3.52q2.115-1.293 4.966-1.293 4.274 0 6.791 2.852M70.07 15.557q-1.492 1.605-1.492 4.456 0 2.85 1.492 4.455 1.493 1.605 3.942 1.605 2.405 0 3.94-1.649 1.538-1.649 1.538-4.411 0-2.808-1.537-4.434t-3.941-1.626q-2.45 0-3.942 1.604m6.391-6.996a7.78 7.78 0 0 1 3.029 3.52v-4.5h7.57v24.863h-7.57v-4.5a7.77 7.77 0 0 1-3.029 3.52q-2.05 1.292-4.899 1.292-3.073 0-5.5-1.537t-3.83-4.434q-1.403-2.895-1.403-6.772 0-3.922 1.403-6.796t3.83-4.41 5.5-1.538q2.85 0 4.899 1.292M105.832 8.65a9.37 9.37 0 0 1 4.876-1.337v8.155h-2.182q-3.029 0-4.698 1.292t-1.67 4.367v11.317h-7.616V7.581h7.616v4.678a10.8 10.8 0 0 1 3.674-3.609M130.727 14.51q-1.359-1.226-3.362-1.226-2.094 0-3.474 1.248-1.382 1.248-1.559 3.654h9.709q.043-2.45-1.314-3.677m8.796 6.884h-17.236q.133 2.808 1.426 4.033 1.29 1.225 3.295 1.225 1.692 0 2.806-.847a3.96 3.96 0 0 0 1.47-2.183h8.061a10.55 10.55 0 0 1-2.138 4.701q-1.648 2.072-4.187 3.253-2.539 1.18-5.655 1.18-3.652 0-6.481-1.537t-4.431-4.433-1.603-6.773q0-3.922 1.581-6.796t4.431-4.41 6.503-1.538q3.696 0 6.502 1.515t4.342 4.255q1.537 2.742 1.537 6.305 0 .936-.223 2.05" fill="#2E4869"/><path d="M8.453 19.995h12.324v-6.823H8.453V7.568H22.97V.745H.854v31.678H22.97V25.6H8.453z" fill="#84C455"/></svg>