<svg width="64" height="64" viewBox="0 0 64 64" fill="none" xmlns="http://www.w3.org/2000/svg"><path d="M33.25 50.75a1.25 1.25 0 1 1-2.5 0 1.25 1.25 0 0 1 2.5 0ZM59.875 39.5c0-4.136-3.364-7.5-7.5-7.5s-7.5 3.364-7.5 7.5 3.364 7.5 7.5 7.5 7.5-3.364 7.5-7.5Zm-7.5 5c-2.757 0-5-2.243-5-5s2.243-5 5-5 5 2.243 5 5-2.243 5-5 5Z" fill="#000"/><path d="M52.375 47c-3.15 0-6.291 1.308-8.43 3.428C41.127 46.727 36.784 44.5 32 44.5c-4.582 0-9.023 2.09-11.944 5.928-2.14-2.12-5.28-3.428-8.431-3.428C5.324 47 0 52.152 0 58.25v2.5C0 61.44.56 62 1.25 62h61.5c.69 0 1.25-.56 1.25-1.25v-2.5C64 52.152 58.676 47 52.375 47ZM2.5 58.25c0-4.743 4.179-8.75 9.125-8.75 2.707 0 5.39 1.2 7.052 3.105A15 15 0 0 0 17 59.5H2.5v-1.25ZM32 47c6.956 0 12.5 5.644 12.5 12.5h-25C19.5 52.552 25.158 47 32 47Zm29.5 12.5H47a15 15 0 0 0-1.677-6.895c1.661-1.906 4.346-3.105 7.052-3.105 4.946 0 9.125 4.007 9.125 8.75v1.25Z" fill="#000"/><path d="M19.125 39.5c0-4.136-3.364-7.5-7.5-7.5s-7.5 3.364-7.5 7.5 3.364 7.5 7.5 7.5 7.5-3.364 7.5-7.5Zm-7.5 5c-2.757 0-5-2.243-5-5s2.243-5 5-5 5 2.243 5 5-2.243 5-5 5ZM42 34.5c0-5.514-4.486-10-10-10s-10 4.486-10 10 4.486 10 10 10 10-4.486 10-10ZM32 42c-4.136 0-7.5-3.364-7.5-7.5S27.864 27 32 27s7.5 3.364 7.5 7.5S36.136 42 32 42ZM41.892 9.27a1.25 1.25 0 0 0-1.009-.85l-5.392-.783L33.077 2.7a1.249 1.249 0 0 0-2.245 0l-2.414 4.936-5.392.782a1.25 1.25 0 0 0-.692 2.132l3.904 3.805-.921 5.374a1.248 1.248 0 0 0 1.814 1.317l4.824-2.536 4.826 2.536a1.25 1.25 0 0 0 1.813-1.317l-.922-5.374 3.904-3.805a1.25 1.25 0 0 0 .316-1.281Zm-6.436 3.755a1.25 1.25 0 0 0-.36 1.106l.605 3.525-3.165-1.664a1.25 1.25 0 0 0-1.163 0l-3.164 1.664.604-3.525a1.25 1.25 0 0 0-.36-1.106l-2.56-2.496 3.537-.513c.41-.06.762-.317.944-.688l1.58-3.233 1.581 3.233c.182.371.535.629.944.688l3.538.513-2.561 2.496ZM60.576 18.639a1.249 1.249 0 0 0-1.01-.85l-3.652-.532-1.633-3.31a1.249 1.249 0 0 0-1.12-.697h-.001c-.476 0-.91.27-1.121.697l-1.634 3.31-3.654.531a1.25 1.25 0 0 0-.692 2.132l2.643 2.578-.624 3.637a1.25 1.25 0 0 0 1.813 1.318l3.269-1.717 3.267 1.717a1.25 1.25 0 0 0 1.814-1.318l-.624-3.637 2.643-2.578a1.25 1.25 0 0 0 .316-1.281Zm-5.175 2.527c-.295.288-.429.701-.359 1.107l.307 1.788-1.607-.844a1.25 1.25 0 0 0-1.163 0l-1.609.845.307-1.79a1.25 1.25 0 0 0-.36-1.105l-1.3-1.269 1.797-.26c.408-.06.76-.316.942-.684l.804-1.629.803 1.628c.182.37.534.625.941.684l1.798.261-1.3 1.268ZM18.076 18.639a1.249 1.249 0 0 0-1.01-.85l-3.652-.532-1.633-3.31a1.249 1.249 0 0 0-2.242 0l-1.634 3.31-3.654.531a1.25 1.25 0 0 0-.692 2.132l2.643 2.578-.624 3.637a1.25 1.25 0 0 0 1.814 1.318l3.268-1.717 3.267 1.717a1.25 1.25 0 0 0 1.814-1.318l-.624-3.637 2.643-2.578a1.25 1.25 0 0 0 .316-1.281Zm-5.175 2.527a1.25 1.25 0 0 0-.36 1.107l.308 1.788-1.608-.844a1.249 1.249 0 0 0-1.162 0l-1.61.845.308-1.79a1.249 1.249 0 0 0-.36-1.105l-1.3-1.27 1.798-.26a1.25 1.25 0 0 0 .94-.683l.804-1.629.803 1.628c.183.37.535.625.942.684l1.797.26-1.3 1.27ZM37.478 51.137a1.25 1.25 0 1 0-1.373 2.09 7.544 7.544 0 0 1 2.671 3.06 1.25 1.25 0 1 0 2.258-1.074 10.04 10.04 0 0 0-3.556-4.076Z" fill="#000"/></svg>