<svg width="64" height="64" viewBox="0 0 64 64" fill="none" xmlns="http://www.w3.org/2000/svg"><g clip-path="url(#a)" fill="#000"><path d="M38.25 40.331c.793 0 1.534-.312 2.087-.88l4.914-5.037a2.916 2.916 0 0 0-.052-4.12 2.917 2.917 0 0 0-4.12.052L38.196 33.3l-.505-.49a2.92 2.92 0 0 0-4.12.057 2.917 2.917 0 0 0 .058 4.12l2.59 2.518a2.9 2.9 0 0 0 2.032.825m-3.331-6.153a1.036 1.036 0 0 1 1.463-.02l1.177 1.144a.94.94 0 0 0 1.328-.017l3.537-3.627a1.036 1.036 0 0 1 1.482 1.445l-4.914 5.037a1.04 1.04 0 0 1-1.462.02l-2.591-2.52a1.036 1.036 0 0 1-.02-1.462"/><path d="M30.99 40.97a.94.94 0 0 0-1.5 1.132c.341.453.72.888 1.124 1.292a12.15 12.15 0 0 0 8.648 3.581 12.15 12.15 0 0 0 8.647-3.581 12.15 12.15 0 0 0 3.582-8.646c0-3.267-1.272-6.337-3.582-8.647-4.768-4.767-12.527-4.767-17.295 0a12.19 12.19 0 0 0-3.002 12.375.94.94 0 0 0 1.79-.572 10.32 10.32 0 0 1 2.54-10.474c4.036-4.035 10.603-4.035 14.639 0a10.28 10.28 0 0 1 3.031 7.318 10.28 10.28 0 0 1-3.032 7.318 10.28 10.28 0 0 1-7.318 3.031 10.28 10.28 0 0 1-7.32-3.031 10.5 10.5 0 0 1-.953-1.096"/><path d="m62.707 51.909-5.927-5.926a.94.94 0 0 0-1.328 0l-.037.036-2.28-2.28a16.5 16.5 0 0 0 2.626-7.946.94.94 0 0 0-1.875-.118 14.63 14.63 0 0 1-4.263 9.433 14.6 14.6 0 0 1-10.347 4.284h-.089A14.6 14.6 0 0 1 28.9 45.107a14.55 14.55 0 0 1-4.292-10.36c0-3.914 1.524-7.593 4.292-10.36 5.713-5.714 15.01-5.714 20.723 0a14.56 14.56 0 0 1 4.061 7.761.94.94 0 0 0 1.85-.332 16.43 16.43 0 0 0-4.582-8.758 16.5 16.5 0 0 0-3.932-2.91v-7.57c0-.247-.1-.49-.275-.664L35.104.275A.95.95 0 0 0 34.44 0H2.818A2.82 2.82 0 0 0 0 2.818v7.895a.94.94 0 0 0 1.879 0V2.818a.94.94 0 0 1 .94-.94H33.5v8.823a2.82 2.82 0 0 0 2.819 2.817h8.823V19.3a16.6 16.6 0 0 0-5.701-1.072l-.028-.003H18.438a.94.94 0 1 0 0 1.879H31.59a16.5 16.5 0 0 0-3.747 2.69h-9.406a.94.94 0 0 0 0 1.879h7.715a16.35 16.35 0 0 0-3.083 6.716h-4.632a.94.94 0 1 0 0 1.879h4.357a17 17 0 0 0-.022 2.697h-4.335a.94.94 0 1 0 0 1.88h4.58a16.35 16.35 0 0 0 3.138 6.983h-7.718a.94.94 0 1 0 0 1.879h9.41a16.5 16.5 0 0 0 3.74 2.686h-13.15a.94.94 0 1 0 0 1.879H39.26c1.995 0 3.99-.359 5.88-1.075v10.987a.94.94 0 0 1-.939.939H2.818a.94.94 0 0 1-.94-.94v-46.71a.94.94 0 0 0-1.878 0v46.71A2.82 2.82 0 0 0 2.818 64h41.384a2.82 2.82 0 0 0 2.819-2.818V49.345q.628-.334 1.233-.726l2.28 2.28c-.394.345-.416 1.001-.036 1.365l5.927 5.926c1.653 1.724 4.629 1.723 6.282 0 1.723-1.653 1.723-4.628 0-6.281M36.32 11.639a.94.94 0 0 1-.94-.938V3.207l8.434 8.433zm13.467 35.856a16.7 16.7 0 0 0 2.224-2.224l2.077 2.076-2.224 2.224zm11.593 9.367c-.954.994-2.671.994-3.625 0L52.49 51.6l3.625-3.625 5.263 5.262c.994.954.994 2.67 0 3.625"/><path d="M8.525 25.6h4.11a2.104 2.104 0 0 0 2.102-2.1v-4.11a2.104 2.104 0 0 0-2.102-2.101h-4.11a2.104 2.104 0 0 0-2.101 2.1v4.11c0 1.159.943 2.101 2.101 2.101m-.222-6.21c0-.123.1-.223.222-.223h4.11c.123 0 .223.1.223.223v4.11c0 .122-.1.222-.223.222h-4.11a.223.223 0 0 1-.222-.223zM6.424 36.67c0 1.159.942 2.101 2.101 2.101h4.11a2.104 2.104 0 0 0 2.102-2.1v-4.11a2.104 2.104 0 0 0-2.102-2.101h-4.11a2.104 2.104 0 0 0-2.101 2.1zm1.879-4.11c0-.122.1-.222.222-.222h4.11c.123 0 .223.1.223.223v4.11c0 .122-.1.222-.223.222h-4.11a.223.223 0 0 1-.222-.223zM6.424 50.109c0 1.158.942 2.1 2.101 2.1h4.11a2.104 2.104 0 0 0 2.102-2.1v-4.11a2.104 2.104 0 0 0-2.102-2.1h-4.11a2.104 2.104 0 0 0-2.101 2.1zm1.879-4.11c0-.122.1-.222.222-.222h4.11c.123 0 .223.1.223.222v4.11c0 .122-.1.222-.223.222h-4.11a.223.223 0 0 1-.222-.222z"/></g><defs><clipPath id="a"><path fill="#fff" d="M0 0h64v64H0z"/></clipPath></defs></svg>