<svg width="64" height="64" viewBox="0 0 64 64" fill="none" xmlns="http://www.w3.org/2000/svg"><path d="M55.163 0H8.837a5.22 5.22 0 0 0-5.214 5.213v21.572A5.22 5.22 0 0 0 8.837 32h1.896l5.125 6.874a2.83 2.83 0 0 0 3.184 1.014 2.83 2.83 0 0 0 1.984-2.689l.072-5.2h5.749a7.615 7.615 0 0 0 2.37 8.86c-5.728 2.036-9.828 7.386-9.828 13.65v6.99H11.9a1.25 1.25 0 0 0 0 2.502h41.345a1.25 1.25 0 1 0 0-2.501h-3.978v-6.99c0-6.477-4.383-11.977-10.417-13.844a7.61 7.61 0 0 0 2.69-5.806c0-4.205-3.421-7.626-7.626-7.626a7.6 7.6 0 0 0-5.417 2.265h-8.633a1.25 1.25 0 0 0-1.25 1.233l-.088 6.433a.34.34 0 0 1-.255.344.34.34 0 0 1-.407-.13l-5.5-7.377a1.25 1.25 0 0 0-1.003-.503H8.837a2.715 2.715 0 0 1-2.713-2.712V5.213a2.716 2.716 0 0 1 2.713-2.712h46.326a2.715 2.715 0 0 1 2.713 2.712v21.572a2.715 2.715 0 0 1-2.713 2.713h-4.778a1.25 1.25 0 0 0 0 2.5h4.778a5.22 5.22 0 0 0 5.213-5.212V5.213A5.22 5.22 0 0 0 55.163 0m-8.396 54.509v6.99h-4.123V54.95a1.25 1.25 0 1 0-2.501 0V61.5H28.734V54.95a1.25 1.25 0 0 0-2.5 0V61.5H21.89v-6.99c0-6.63 5.58-12.024 12.438-12.024s12.438 5.394 12.438 12.024M33.914 29.734a5.13 5.13 0 0 1 5.125 5.125 5.13 5.13 0 0 1-5.125 5.124 5.13 5.13 0 0 1-5.124-5.124 5.13 5.13 0 0 1 5.124-5.125M58.61 64a1.25 1.25 0 1 0 0-2.5 1.25 1.25 0 0 0 0 2.5" fill="#000"/><path d="M21.355 16.685a1.25 1.25 0 1 0 0-2.5 1.25 1.25 0 0 0 0 2.5M28.65 16.685a1.25 1.25 0 1 0 0-2.5 1.25 1.25 0 0 0 0 2.5M35.177 16.685a1.25 1.25 0 1 0 0-2.5 1.25 1.25 0 0 0 0 2.5M42.318 16.685a1.25 1.25 0 1 0 0-2.5 1.25 1.25 0 0 0 0 2.5M45.042 31.945a1.25 1.25 0 1 0 0-2.501 1.25 1.25 0 0 0 0 2.501" fill="#000"/></svg>