<svg width="25" height="25" viewBox="0 0 25 25" fill="none" xmlns="http://www.w3.org/2000/svg"><path d="M4.063 4.375h1.875a.95.95 0 0 1 .937.938v1.875c0 .546-.43.937-.937.937H4.063c-.547 0-.938-.39-.938-.937V5.313c0-.508.39-.938.938-.938M10 5h11.25c.664 0 1.25.586 1.25 1.25 0 .703-.586 1.25-1.25 1.25H10c-.703 0-1.25-.547-1.25-1.25C8.75 5.586 9.297 5 10 5m0 6.25h11.25c.664 0 1.25.586 1.25 1.25 0 .703-.586 1.25-1.25 1.25H10c-.703 0-1.25-.547-1.25-1.25 0-.664.547-1.25 1.25-1.25m0 6.25h11.25c.664 0 1.25.586 1.25 1.25 0 .703-.586 1.25-1.25 1.25H10c-.703 0-1.25-.547-1.25-1.25 0-.664.547-1.25 1.25-1.25m-6.875-5.937c0-.508.39-.938.938-.938h1.875a.95.95 0 0 1 .937.938v1.874c0 .547-.43.938-.937.938H4.063c-.547 0-.938-.39-.938-.937zm.938 5.312h1.875a.95.95 0 0 1 .937.938v1.875c0 .546-.43.937-.937.937H4.063c-.547 0-.938-.39-.938-.937v-1.875c0-.508.39-.938.938-.938" fill="currentColor"/></svg>