<svg width="25" height="25" viewBox="0 0 25 25" fill="none" xmlns="http://www.w3.org/2000/svg"><path d="M13.047 14.688a.694.694 0 0 1-1.133 0c-1.25-1.563-4.101-5.352-4.101-7.5A4.676 4.676 0 0 1 12.5 2.5a4.7 4.7 0 0 1 4.688 4.688c0 2.148-2.891 5.937-4.141 7.5m4.453 7.46V10.352l.352-.82c.039-.04.039-.079.078-.118l4.53-1.836c.587-.234 1.29.195 1.29.86v10.585c0 .391-.234.743-.625.86zM1.836 9.844 6.602 7.93c.117.547.273 1.093.507 1.601.118.274.235.547.391.82v9.805l-5 1.992a.916.916 0 0 1-1.25-.859V10.703c0-.39.234-.742.586-.86M16.25 12.46v9.766l-7.5-2.149v-7.617a29 29 0 0 0 2.188 3.008 1.944 1.944 0 0 0 3.085 0 36 36 0 0 0 2.227-3.008" fill="currentColor"/></svg>