<svg width="25" height="25" viewBox="0 0 25 25" fill="none" xmlns="http://www.w3.org/2000/svg"><path d="M7.5 2.5h6.25v5c0 .703.547 1.25 1.25 1.25h5V20c0 1.406-1.133 2.5-2.5 2.5h-10A2.47 2.47 0 0 1 5 20V5c0-1.367 1.094-2.5 2.5-2.5m7.5 0 5 5h-5zm-1.562 15.938v-3.985l1.21 1.211c.352.39.938.39 1.329 0 .351-.351.351-.937 0-1.328l-2.813-2.813c-.39-.351-.976-.351-1.328 0l-2.813 2.813c-.39.39-.39.976 0 1.328.352.39.938.39 1.329 0l1.21-1.21v3.983c0 .547.391.938.938.938.508 0 .938-.39.938-.937" fill="currentColor"/></svg>