<svg width="25" height="26" viewBox="0 0 25 26" fill="none" xmlns="http://www.w3.org/2000/svg"><path d="M11.367 3.469a1.63 1.63 0 0 1 2.227 0l8.437 8.437a1.63 1.63 0 0 1 0 2.227l-8.437 8.437a1.63 1.63 0 0 1-2.227 0L2.93 14.133a1.63 1.63 0 0 1 0-2.227zm3.438 5.351c-.196-.156-.47-.234-.703-.117-.196.078-.352.313-.352.547v2.188h-2.5a2.49 2.49 0 0 0-2.5 2.5v1.874c0 .547.39.938.938.938.507 0 .937-.39.937-.937v-1.876c0-.312.273-.624.625-.624h2.5V15.5c0 .273.117.508.352.586.234.117.507.039.703-.117l3.125-3.125a.66.66 0 0 0 0-.899z" fill="#9747FF"/></svg>