<svg width="25" height="25" viewBox="0 0 25 25" fill="none" xmlns="http://www.w3.org/2000/svg"><path d="M10.82 3.79a1.25 1.25 0 0 1 1.016 1.444l-.39 2.266h3.71l.469-2.695a1.249 1.249 0 1 1 2.46.43l-.39 2.265H20c.664 0 1.25.586 1.25 1.25 0 .703-.586 1.25-1.25 1.25h-2.695l-.86 5h2.305c.664 0 1.25.586 1.25 1.25 0 .703-.586 1.25-1.25 1.25h-2.695l-.47 2.734a1.248 1.248 0 1 1-2.46-.43l.39-2.265h-3.71l-.47 2.695a1.249 1.249 0 1 1-2.46-.43l.39-2.304H5c-.703 0-1.25-.547-1.25-1.25 0-.664.547-1.25 1.25-1.25h2.656l.86-5H6.25C5.547 10 5 9.453 5 8.75c0-.664.547-1.25 1.25-1.25h2.656l.469-2.695a1.25 1.25 0 0 1 1.445-1.016m.235 6.21-.86 5h3.711l.86-5z" fill="currentColor"/></svg>