<svg width="25" height="25" viewBox="0 0 25 25" fill="none" xmlns="http://www.w3.org/2000/svg"><path d="M8.75 2.5c.664 0 1.25.586 1.25 1.25V5h5V3.75c0-.664.547-1.25 1.25-1.25.664 0 1.25.586 1.25 1.25V5h1.875c1.016 0 1.875.86 1.875 1.875V8.75H3.75V6.875C3.75 5.859 4.57 5 5.625 5H7.5V3.75c0-.664.547-1.25 1.25-1.25m-5 7.5h17.5v10.625c0 1.055-.86 1.875-1.875 1.875H5.625a1.85 1.85 0 0 1-1.875-1.875zm3.125 2.5a.64.64 0 0 0-.625.625v3.75c0 .352.273.625.625.625h3.75a.64.64 0 0 0 .625-.625v-3.75c0-.312-.312-.625-.625-.625z" fill="currentColor"/></svg>