<svg width="300" height="18" viewBox="0 0 300 18" fill="none" xmlns="http://www.w3.org/2000/svg"><path fill-rule="evenodd" clip-rule="evenodd" d="M61.134 9.047v-.048c0-4.767 3.769-8.51 8.881-8.51 2.898 0 4.948.889 6.694 2.384L74.02 6.077c-1.178-.982-2.357-1.543-3.98-1.543-2.382 0-4.219 1.987-4.219 4.49v.046c0 2.642 1.861 4.534 4.477 4.534 1.106 0 1.955-.234 2.638-.676V10.94h-3.25V7.62h7.586v7.364c-1.743 1.427-4.17 2.526-7.164 2.526-5.136 0-8.975-3.507-8.975-8.463ZM46.19.817h13.194v3.976h-8.622v2.782h7.798v3.763h-7.798v5.846H46.19V.816Zm36.457 0h-5.112l6.69 16.483h4.243L95.161.816h-5.02l-3.747 10.357L82.648.816Z" fill="#fff"/><path d="m0 .81 14.544 16.36H27.27L12.727.81H0Z" fill="#fff"/><path d="M30.938 10.55 41.81.812H29.087l-5.8 5.193 7.65 4.547Z" fill="#2A84C2"/><path fill-rule="evenodd" clip-rule="evenodd" d="M119.226 8.953c0-4.724 3.664-8.396 8.563-8.396 4.9 0 8.563 3.719 8.541 8.396-.023 4.748-3.663 8.513-8.541 8.49-4.899-.024-8.563-3.812-8.563-8.49Zm4.473 0c0 2.503 1.82 4.537 4.09 4.537 2.248 0 4.068-2.011 4.068-4.537 0-2.502-1.82-4.42-4.068-4.42-2.27 0-4.09 1.941-4.09 4.42ZM291.459.557c-4.899 0-8.563 3.672-8.563 8.396 0 4.678 3.664 8.466 8.563 8.49 4.877.023 8.518-3.742 8.541-8.49.022-4.677-3.641-8.396-8.541-8.396Zm0 12.933c-2.27 0-4.09-2.034-4.09-4.537 0-2.479 1.82-4.42 4.09-4.42 2.248 0 4.068 1.918 4.068 4.42 0 2.526-1.82 4.537-4.068 4.537ZM268.534.814v3.719h4.697v12.652h4.473V4.533h4.719V.814h-13.889Zm-17.161 0h4.518l6.203 8.91V.814h4.472v16.371h-4.54l-6.18-8.934v8.934h-4.473V.814Zm-2.6 0h-12.654v16.371h12.654v-3.672h-8.181v-2.736h7.057V7.222h-7.057V4.486h8.181V.814Zm-33.878 16.371V.814h4.517l4.54 7.063 4.585-7.063h4.518v16.371h-4.473V8.251l-4.63 7.32-4.585-7.297v8.911h-4.472Zm-3.185 0V.814h-4.472v16.371h4.472Zm-13.664.235c-4.697 0-8.563-3.204-8.563-8.373 0-5.098 3.911-8.42 8.563-8.442 3.349 0 5.709 1.59 6.855 3.32l-2.989 2.292c-.652-.912-1.708-1.87-3.641-1.87-2.315 0-4.315 1.847-4.315 4.7 0 2.83 1.955 4.607 4.293 4.607 2.27 0 3.236-1.099 3.753-1.917l2.877 2.081c-.832 1.52-3.079 3.602-6.833 3.602ZM187.931.814h-12.653v16.371h12.653v-3.672h-8.181v-2.736h7.057V7.222h-7.057V4.486h8.181V.814Zm-31.002 0h4.45v6.338h6.338V.814h4.473v16.371h-4.473V10.87h-6.315v6.315h-4.473V.814Zm-13.744 0h-4.518v16.371h4.473V8.251l6.181 8.934h4.54V.814h-4.473v8.91l-6.203-8.91Zm-39.959 8.233c0 5.169 3.866 8.373 8.563 8.373 3.753 0 6.001-2.082 6.832-3.602l-2.876-2.081c-.517.818-1.484 1.918-3.754 1.918-2.337 0-4.293-1.778-4.293-4.608 0-2.853 2.001-4.7 4.316-4.7 1.933 0 2.989.958 3.641 1.87l2.989-2.292c-1.146-1.73-3.506-3.32-6.855-3.32-4.652.023-8.563 3.344-8.563 8.442Z" fill="#2A84C2"/></svg>