<svg width="300" height="18" viewBox="0 0 300 18" fill="none" xmlns="http://www.w3.org/2000/svg"><path fill-rule="evenodd" clip-rule="evenodd" d="M61.134 9.404v-.047c0-4.762 3.769-8.5 8.881-8.5 2.898 0 4.948.888 6.694 2.381l-2.688 3.2c-1.179-.98-2.357-1.54-3.98-1.54-2.382 0-4.22 1.984-4.22 4.484v.046c0 2.638 1.862 4.528 4.478 4.528 1.106 0 1.955-.233 2.638-.676v-1.985h-3.25V7.98h7.586v7.354c-1.743 1.425-4.17 2.524-7.164 2.524-5.136 0-8.975-3.503-8.975-8.454ZM46.19 1.184h13.194v3.971h-8.623v2.78h7.799v3.758h-7.799v5.839h-4.57V1.184Zm36.457 0h-5.113l6.692 16.463h4.242l6.692-16.463h-5.02l-3.747 10.344-3.746-10.344Z" fill="#233769"/><path d="m0 1.178 14.544 16.339H27.27L12.727 1.178H0Z" fill="#233769"/><path d="M30.938 10.906 41.81 1.18H29.087l-5.8 5.186 7.65 4.541Z" fill="#2A84C2"/><path fill-rule="evenodd" clip-rule="evenodd" d="M119.226 9.321c0-4.724 3.664-8.396 8.563-8.396 4.9 0 8.563 3.719 8.541 8.396-.023 4.748-3.664 8.513-8.541 8.49-4.899-.024-8.563-3.813-8.563-8.49Zm4.473 0c0 2.502 1.82 4.537 4.09 4.537 2.248 0 4.068-2.011 4.068-4.537 0-2.502-1.82-4.42-4.068-4.42-2.27 0-4.09 1.941-4.09 4.42ZM291.459.925c-4.899 0-8.563 3.672-8.563 8.396 0 4.678 3.664 8.466 8.563 8.49 4.877.023 8.518-3.742 8.541-8.49.022-4.677-3.641-8.396-8.541-8.396Zm0 12.933c-2.27 0-4.09-2.035-4.09-4.537 0-2.479 1.82-4.42 4.09-4.42 2.248 0 4.068 1.918 4.068 4.42 0 2.526-1.82 4.537-4.068 4.537ZM268.534 1.182V4.9h4.697v12.653h4.473V4.9h4.719V1.182h-13.889Zm-17.161 0h4.518l6.203 8.91v-8.91h4.472v16.37h-4.54l-6.18-8.933v8.934h-4.473V1.182Zm-2.6 0h-12.654v16.37h12.654v-3.671h-8.181v-2.736h7.057V7.59h-7.057V4.854h8.181V1.182Zm-33.878 16.37V1.183h4.517l4.54 7.063 4.585-7.063h4.518v16.37h-4.473V8.62l-4.63 7.32-4.585-7.297v8.91h-4.472Zm-3.185 0V1.183h-4.472v16.37h4.472Zm-13.664.236c-4.697 0-8.563-3.204-8.563-8.373 0-5.098 3.911-8.42 8.563-8.443 3.349 0 5.709 1.59 6.855 3.321l-2.989 2.292c-.652-.912-1.708-1.87-3.641-1.87-2.315 0-4.315 1.847-4.315 4.7 0 2.83 1.955 4.607 4.293 4.607 2.27 0 3.236-1.099 3.753-1.917l2.877 2.081c-.832 1.52-3.079 3.602-6.833 3.602ZM187.931 1.182h-12.653v16.37h12.653v-3.671h-8.181v-2.736h7.057V7.59h-7.057V4.854h8.181V1.182Zm-31.002 0h4.45V7.52h6.338V1.182h4.473v16.37h-4.473v-6.314h-6.315v6.315h-4.473V1.182Zm-13.744 0h-4.518v16.37h4.473V8.62l6.181 8.934h4.54V1.182h-4.473v8.91l-6.203-8.91Zm-39.959 8.233c0 5.169 3.866 8.373 8.563 8.373 3.753 0 6.001-2.082 6.832-3.602l-2.876-2.081c-.517.818-1.484 1.917-3.754 1.917-2.337 0-4.293-1.777-4.293-4.607 0-2.853 2.001-4.7 4.316-4.7 1.933 0 2.989.958 3.641 1.87l2.989-2.292c-1.146-1.73-3.506-3.32-6.855-3.32-4.652.023-8.563 3.344-8.563 8.442Z" fill="#2A84C2"/></svg>